<?xml version="1.0" encoding="utf-8"?>
<!-- Generator: Adobe Illustrator 21.1.0, SVG Export Plug-In . SVG Version: 6.00 Build 0)  -->
<svg version="1.1" id="Layer_1" xmlns="http://www.w3.org/2000/svg" xmlns:xlink="http://www.w3.org/1999/xlink" x="0px" y="0px"
	 viewBox="0 0 564 237" style="enable-background:new 0 0 564 237;" xml:space="preserve">
<style type="text/css">
	.st0{fill:url(#SVGID_1_);}
	.st1{fill:url(#SVGID_2_);}
	.st2{fill:#FFFFFF;}
</style>
<title>traxion-logo-w</title>
<g>
	<g>
		
			<radialGradient id="SVGID_1_" cx="323.4234" cy="110.7619" r="55.75" gradientTransform="matrix(0.9852 0.176 0.1213 -0.6901 -50.1282 138.8629)" gradientUnits="userSpaceOnUse">
			<stop  offset="0.32" style="stop-color:#00BEDF"/>
			<stop  offset="0.58" style="stop-color:#00BCDD"/>
			<stop  offset="0.73" style="stop-color:#00B3D5"/>
			<stop  offset="0.85" style="stop-color:#00A5C8"/>
			<stop  offset="0.96" style="stop-color:#0092B6"/>
			<stop  offset="1" style="stop-color:#0088AD"/>
		</radialGradient>
		<path class="st0" d="M218.5,104.7c5.3-24.2,38-37.5,73-29.8s59,33.5,53.7,57.7c-5.3,24.2-38,37.5-73,29.8
			C237.2,154.8,213.2,128.9,218.5,104.7z"/>
		<g>
			
				<radialGradient id="SVGID_2_" cx="353.2068" cy="328.0508" r="23.36" gradientTransform="matrix(1.3145 -1.996451e-02 1.673341e-02 -1.1473 -163.1162 493.9002)" gradientUnits="userSpaceOnUse">
				<stop  offset="0" style="stop-color:#FFFFFF"/>
				<stop  offset="0.25" style="stop-color:#FDFEFF;stop-opacity:0.99"/>
				<stop  offset="0.39" style="stop-color:#F5FCFE;stop-opacity:0.96"/>
				<stop  offset="0.5" style="stop-color:#E7F9FC;stop-opacity:0.91"/>
				<stop  offset="0.59" style="stop-color:#D4F4FA;stop-opacity:0.83"/>
				<stop  offset="0.68" style="stop-color:#BAEEF6;stop-opacity:0.73"/>
				<stop  offset="0.76" style="stop-color:#9BE6F3;stop-opacity:0.61"/>
				<stop  offset="0.83" style="stop-color:#77DCEE;stop-opacity:0.47"/>
				<stop  offset="0.9" style="stop-color:#4CD1E9;stop-opacity:0.3"/>
				<stop  offset="0.97" style="stop-color:#1DC5E3;stop-opacity:0.11"/>
				<stop  offset="1" style="stop-color:#00BEDF;stop-opacity:0"/>
			</radialGradient>
			<path class="st1" d="M304.2,88.9c18.9-1.9,35.2,6.9,36.5,19.6c1.3,12.7-13,24.6-31.9,26.4s-35.2-6.9-36.5-19.6
				S285.3,90.8,304.2,88.9z"/>
		</g>
	</g>
	<g>
		<g>
			<path class="st2" d="M104.5,74v9.7H79.4v70.2H68.2V83.6H43.1V74H104.5z"/>
			<path class="st2" d="M133.1,92.6c0.9,0,2,0.1,3.2,0.2c1.2,0.1,2.4,0.3,3.5,0.5s2.2,0.4,3.2,0.6c0.7,0.1,1.4,0.3,2.1,0.5l-1.8,9.3
				c-1.4-0.4-2.8-0.8-4.2-1.1c-2.5-0.5-5-0.7-7.6-0.6c-2,0-4,0.2-5.9,0.6c-2,0.4-3.2,0.7-3.9,0.9v50.4H111V96.4
				c3.1-1.1,6.2-1.9,9.4-2.6C124.6,93,128.8,92.6,133.1,92.6z"/>
			<path class="st2" d="M174.8,92.4c3.7-0.1,7.4,0.5,10.9,1.7c2.7,1,5.2,2.6,7.1,4.7c1.8,2.1,3.2,4.6,3.9,7.3c0.8,3,1.2,6.1,1.1,9.3
				v37.5l-3.9,0.6c-1.7,0.3-3.5,0.5-5.6,0.8s-4.3,0.4-6.7,0.6c-2.4,0.2-4.8,0.3-7.2,0.3c-3.1,0-6.3-0.3-9.3-1
				c-2.7-0.6-5.2-1.7-7.4-3.3c-2.1-1.5-3.8-3.6-4.8-5.9c-1.2-2.8-1.8-5.8-1.7-8.9c-0.1-3,0.6-5.9,2-8.5c1.3-2.3,3.2-4.3,5.5-5.8
				c2.5-1.5,5.2-2.6,8.1-3.2c3.2-0.7,6.4-1,9.7-1c1.1,0,2.2,0.1,3.3,0.2c1.2,0.1,2.2,0.3,3.3,0.5l2.7,0.5c0.8,0.2,1.3,0.3,1.6,0.3
				v-3c0-1.8-0.2-3.5-0.6-5.2c-0.4-1.7-1.1-3.2-2.1-4.6c-1.1-1.4-2.5-2.5-4.1-3.2c-2.1-0.9-4.4-1.3-6.7-1.2c-3.1,0-6.2,0.2-9.3,0.8
				c-2,0.3-4,0.9-5.9,1.6l-1.3-8.9c2.2-0.8,4.6-1.4,6.9-1.8C167.8,92.7,171.3,92.4,174.8,92.4z M175.7,146.1c2.5,0,4.8-0.1,6.7-0.2
				c1.6-0.1,3.3-0.3,4.9-0.6v-17.9c-1.2-0.5-2.5-0.8-3.8-1c-2.1-0.3-4.2-0.4-6.3-0.4c-1.7,0-3.4,0.1-5.1,0.3c-1.7,0.2-3.4,0.7-5,1.4
				c-1.5,0.7-2.7,1.7-3.8,3c-1.1,1.4-1.6,3.2-1.5,5c0,3.8,1.2,6.5,3.7,8C168.1,145.3,171.5,146.1,175.7,146.1z"/>
			<path class="st2" d="M380.6,83.1c-1.8,0-3.6-0.6-4.9-1.9c-2.7-2.9-2.7-7.4,0-10.3c2.8-2.5,7-2.5,9.8,0c2.7,2.9,2.7,7.4,0,10.3
				C384.2,82.4,382.5,83.1,380.6,83.1z M386.1,153.8h-10.7V93.9h10.7L386.1,153.8z"/>
			<path class="st2" d="M457.4,123.9c0.1,4.4-0.6,8.8-2.1,12.9c-1.3,3.7-3.2,7-5.8,9.9c-2.5,2.8-5.5,4.9-8.9,6.4
				c-7.2,3-15.4,3-22.6,0c-3.4-1.5-6.5-3.6-8.9-6.4c-2.6-2.9-4.5-6.3-5.8-9.9c-2.8-8.4-2.8-17.4,0-25.8c1.3-3.7,3.2-7.1,5.8-10
				c2.5-2.8,5.5-4.9,8.9-6.4c7.2-3,15.4-3,22.6,0c3.4,1.5,6.4,3.6,8.9,6.4c2.6,2.9,4.6,6.3,5.8,10
				C456.7,115.1,457.4,119.5,457.4,123.9z M446.2,123.9c0-6.8-1.5-12.1-4.5-16.1c-5.5-6.8-15.5-7.9-22.4-2.4
				c-0.9,0.7-1.7,1.5-2.4,2.4c-3,4-4.6,9.3-4.5,16.1c0,6.8,1.5,12.1,4.5,16.1c5.5,6.8,15.5,7.9,22.4,2.4c0.9-0.7,1.7-1.5,2.4-2.4
				C444.7,136,446.2,130.6,446.2,123.9z"/>
			<path class="st2" d="M472.5,95.6c2.5-0.6,5.7-1.3,9.8-2c4.7-0.7,9.4-1.1,14.1-1c4.1-0.1,8.1,0.5,11.9,2c3,1.2,5.6,3.1,7.5,5.7
				c2,2.6,3.3,5.5,4,8.7c0.8,3.7,1.2,7.4,1.2,11.2v33.7h-10.7v-31.3c0.1-3.2-0.2-6.3-0.7-9.5c-0.4-2.3-1.2-4.4-2.5-6.3
				c-1.1-1.6-2.8-2.8-4.6-3.5c-2.3-0.8-4.7-1.2-7.1-1.1c-1.2,0-2.3,0-3.6,0.1s-2.4,0.2-3.5,0.3c-1.1,0.1-2.1,0.2-3,0.4l-1.9,0.3
				v50.6h-10.8V95.6z"/>
		</g>
		<path class="st2" d="M329.2,88l0.8-0.6c12.8-9.1,46.7-40.6,31.8-50.2c-11.4-5.8-26,7.1-22.2,22.7c2.9,11.7,1.9,12.2-15.5,24.4
			c-10.1-6.4-21.3-10.6-33.1-12.6c-37-6.4-70.7,9.9-75.2,36.3c-2.8,16.3,6.2,32.7,22.2,44.4c-11.6,10.7-22.4,22.4-32.1,34.9
			c-5.4,7-8.4,13.1-8.9,22c0,8.7,9.4,9.3,13.7,7.2c8.3-4.1,13.4-13.5,12.9-20.8c-0.9-12.6-4.6-8.3,13.3-30c2.6-3.1,5.1-6,7.7-8.9
			c9.1,5.6,18,8.4,30.1,10.5c37,6.4,70.7-9.9,75.2-36.3C352.6,115.1,344.6,99.6,329.2,88z M320.8,86.6c-4.2,3-9.2,6.5-15.1,11
			c-1.5-0.8-3.1-1.5-4.7-2C287,91,283.6,83.1,282.9,78.2c2.1-0.1,4.3-0.2,6.5-0.2C300.4,78,311.3,81,320.8,86.6L320.8,86.6z
			 M229.3,121.3c0-14.9,10.6-30.4,30.6-38.2c0.5,10.3,7,17.1,30.1,26.5c-15.8,12.1-31.8,24.7-46.8,38.2
			C234.7,140.7,229.3,131.7,229.3,121.3L229.3,121.3z M248.5,151.6c10.8-10.9,24.6-21.8,48.2-39.1c19.6,9.6,7.9,40.7,3.6,49.4
			c-3.8,0.7-7.7,1.1-11.6,1.1C273.6,162.9,259.7,159.3,248.5,151.6z M325.7,151.5c4.6-20.4,0.6-40.6-13-50.8c4.7-3.4,8.6-6.1,14-10
			c11.8,8.4,18.5,19.1,18.5,30.5C345.1,132.5,337.4,143.6,325.7,151.5L325.7,151.5z"/>
	</g>
</g>
</svg>
