<svg id="Capa_1" data-name="Capa 1" xmlns="http://www.w3.org/2000/svg" viewBox="0 0 46.72 36.56"><defs><style>.cls-1{fill:#fcc62d;}.cls-2{fill:#e4af18;}.cls-3{fill:#ce9912;}.cls-4{fill:#ffd949;}.cls-5{fill:#f0c41b;}.cls-6{fill:#666;}.cls-7{fill:#e6e6e6;}.cls-8{fill:#333;}.cls-9{fill:#6ac259;}.cls-10{fill:#115c75;}</style></defs><title>coins</title><g id="_Group_" data-name="&lt;Group&gt;"><path id="_Path_" data-name="&lt;Path&gt;" class="cls-1" d="M17.5,40.12v.3c0,1.67-2.81,3-6.28,3a10,10,0,0,1-4.78-1.07c.39,1.51,3,2.76,6.23,2.76C16.14,45.14,19,43.67,19,42a2.31,2.31,0,0,0-1.45-1.88" transform="translate(-4.95 -13.33)"/><path id="_Path_2" data-name="&lt;Path&gt;" class="cls-2" d="M12.68,45.14C9.21,45.14,6.4,43.67,6.4,42v2c0,1.67,2.81,3,6.28,3S19,45.71,19,44V42c0,1.67-2.81,3.14-6.28,3.14" transform="translate(-4.95 -13.33)"/><path id="_Path_3" data-name="&lt;Path&gt;" class="cls-3" d="M7.12,45.46a3.92,3.92,0,0,0,.48.37v-2a4,4,0,0,1-.48-.39Z" transform="translate(-4.95 -13.33)"/><path id="_Path_4" data-name="&lt;Path&gt;" class="cls-3" d="M17.74,43.83v2a3.9,3.9,0,0,0,.48-.37v-2a4,4,0,0,1-.48.39" transform="translate(-4.95 -13.33)"/><path id="_Path_5" data-name="&lt;Path&gt;" class="cls-3" d="M8.09,46.12l.48.22v-2l-.48-.24Z" transform="translate(-4.95 -13.33)"/><path id="_Path_6" data-name="&lt;Path&gt;" class="cls-3" d="M16.78,46.34l.48-.22v-2l-.48.24Z" transform="translate(-4.95 -13.33)"/><path id="_Path_7" data-name="&lt;Path&gt;" class="cls-3" d="M9.05,46.52l.48.15v-2l-.48-.16Z" transform="translate(-4.95 -13.33)"/><path id="_Path_8" data-name="&lt;Path&gt;" class="cls-3" d="M15.81,46.67l.48-.15v-2l-.48.16Z" transform="translate(-4.95 -13.33)"/><path id="_Path_9" data-name="&lt;Path&gt;" class="cls-3" d="M10.26,46.85l.48.09V45l-.48-.09Z" transform="translate(-4.95 -13.33)"/><path id="_Path_10" data-name="&lt;Path&gt;" class="cls-3" d="M14.61,46.93l.48-.09V44.9l-.48.09Z" transform="translate(-4.95 -13.33)"/><path id="_Path_11" data-name="&lt;Path&gt;" class="cls-3" d="M11.71,47l.48,0V45.14l-.48,0Z" transform="translate(-4.95 -13.33)"/><path id="_Path_12" data-name="&lt;Path&gt;" class="cls-3" d="M13.16,47.07l.48,0V45.11l-.48,0Z" transform="translate(-4.95 -13.33)"/><path id="_Path_13" data-name="&lt;Path&gt;" class="cls-2" d="M11.23,41.51c-3.47,0-6.28-1.46-6.28-3.14v2c0,1.67,2.81,3,6.28,3s6.28-1.36,6.28-3v-2c0,1.67-2.81,3.14-6.28,3.14" transform="translate(-4.95 -13.33)"/><path id="_Path_14" data-name="&lt;Path&gt;" class="cls-3" d="M5.67,41.84a3.92,3.92,0,0,0,.48.37v-2a4,4,0,0,1-.48-.39Z" transform="translate(-4.95 -13.33)"/><path id="_Path_15" data-name="&lt;Path&gt;" class="cls-3" d="M16.3,40.21v2a3.9,3.9,0,0,0,.48-.37v-2a4,4,0,0,1-.48.39" transform="translate(-4.95 -13.33)"/><path id="_Path_16" data-name="&lt;Path&gt;" class="cls-3" d="M6.64,42.49l.48.22v-2l-.48-.24Z" transform="translate(-4.95 -13.33)"/><path id="_Path_17" data-name="&lt;Path&gt;" class="cls-3" d="M15.33,42.72l.48-.22v-2l-.48.24Z" transform="translate(-4.95 -13.33)"/><path id="_Path_18" data-name="&lt;Path&gt;" class="cls-3" d="M7.61,42.9l.48.15v-2l-.48-.16Z" transform="translate(-4.95 -13.33)"/><path id="_Path_19" data-name="&lt;Path&gt;" class="cls-3" d="M14.36,43l.48-.15v-2l-.48.16Z" transform="translate(-4.95 -13.33)"/><path id="_Path_20" data-name="&lt;Path&gt;" class="cls-3" d="M8.81,43.22l.48.09V41.37l-.48-.09Z" transform="translate(-4.95 -13.33)"/><path id="_Path_21" data-name="&lt;Path&gt;" class="cls-3" d="M13.16,43.31l.48-.09V41.28l-.48.09Z" transform="translate(-4.95 -13.33)"/><path id="_Path_22" data-name="&lt;Path&gt;" class="cls-3" d="M10.26,43.42l.48,0V41.51l-.48,0Z" transform="translate(-4.95 -13.33)"/><path id="_Path_23" data-name="&lt;Path&gt;" class="cls-3" d="M11.71,43.45l.48,0V41.49l-.48,0Z" transform="translate(-4.95 -13.33)"/><path id="_Path_24" data-name="&lt;Path&gt;" class="cls-4" d="M17.34,41.11c-.65,1.34-3.14,2.34-6.11,2.34a11.85,11.85,0,0,1-3.06-.38,8.27,8.27,0,0,0,4.51,1.1C16,44.16,18,42.88,18,42a1.21,1.21,0,0,0-.65-.89" transform="translate(-4.95 -13.33)"/><path id="_Path_25" data-name="&lt;Path&gt;" class="cls-4" d="M12.43,41C9,41,6.16,39.68,6.16,38V36.64a2.16,2.16,0,0,0-1.21,1.74c0,1.67,2.81,3.14,6.28,3.14a10.19,10.19,0,0,0,4.31-.88,11.81,11.81,0,0,1-3.1.4" transform="translate(-4.95 -13.33)"/><path id="_Path_26" data-name="&lt;Path&gt;" class="cls-2" d="M12.43,39.1C9,39.1,6.16,37.63,6.16,36v2c0,1.67,2.81,3,6.28,3s6.28-1.36,6.28-3V36c0,1.67-2.81,3.14-6.28,3.14" transform="translate(-4.95 -13.33)"/><path id="_Path_27" data-name="&lt;Path&gt;" class="cls-3" d="M6.88,39.42a3.92,3.92,0,0,0,.48.37v-2a4,4,0,0,1-.48-.39Z" transform="translate(-4.95 -13.33)"/><path id="_Path_28" data-name="&lt;Path&gt;" class="cls-3" d="M17.5,37.8v2a3.9,3.9,0,0,0,.48-.37v-2a4,4,0,0,1-.48.39" transform="translate(-4.95 -13.33)"/><path id="_Path_29" data-name="&lt;Path&gt;" class="cls-3" d="M7.85,40.08l.48.22v-2l-.48-.24Z" transform="translate(-4.95 -13.33)"/><path id="_Path_30" data-name="&lt;Path&gt;" class="cls-3" d="M16.54,40.3l.48-.22v-2l-.48.24Z" transform="translate(-4.95 -13.33)"/><path id="_Path_31" data-name="&lt;Path&gt;" class="cls-3" d="M8.81,40.49l.48.15v-2l-.48-.16Z" transform="translate(-4.95 -13.33)"/><path id="_Path_32" data-name="&lt;Path&gt;" class="cls-3" d="M15.57,40.64l.48-.15v-2l-.48.16Z" transform="translate(-4.95 -13.33)"/><path id="_Path_33" data-name="&lt;Path&gt;" class="cls-3" d="M10,40.81l.48.09V39L10,38.86Z" transform="translate(-4.95 -13.33)"/><path id="_Path_34" data-name="&lt;Path&gt;" class="cls-3" d="M14.36,40.9l.48-.09V38.86l-.48.09Z" transform="translate(-4.95 -13.33)"/><path id="_Path_35" data-name="&lt;Path&gt;" class="cls-3" d="M11.47,41,12,41V39.1l-.48,0Z" transform="translate(-4.95 -13.33)"/><path id="_Path_36" data-name="&lt;Path&gt;" class="cls-3" d="M12.92,41l.48,0V39.07l-.48,0Z" transform="translate(-4.95 -13.33)"/><path id="_Path_37" data-name="&lt;Path&gt;" class="cls-1" d="M18.71,36c0,1.67-2.81,3.14-6.28,3.14S6.16,37.64,6.16,36s2.81-2.9,6.28-2.9,6.28,1.22,6.28,2.9" transform="translate(-4.95 -13.33)"/><path id="_Path_38" data-name="&lt;Path&gt;" class="cls-4" d="M12.43,38.13c-3.3,0-5.31-1.28-5.31-2.16s2-2.17,5.31-2.17,5.31,1.29,5.31,2.17-2,2.16-5.31,2.16" transform="translate(-4.95 -13.33)"/><path id="_Path_39" data-name="&lt;Path&gt;" class="cls-5" d="M14.07,36.29c.2,0,.31-.16.27-.3l0-.15a.45.45,0,0,0-.32-.25c-.22-.47-.77-.63-1.6-.63h-.11a2.11,2.11,0,0,1-.78-.1.87.87,0,0,1-.21-.1s-.07,0-.07,0a.75.75,0,0,0,0,.12c0,.18,0,.15-.18.33a1.22,1.22,0,0,0-.25.36.45.45,0,0,0-.32.25l0,.15c0,.14.07.26.27.3a1.07,1.07,0,0,0,.83.84l0,.25a.21.21,0,0,1-.15.16l-1.06.38a10.8,10.8,0,0,0,4.2,0l-1-.39a.21.21,0,0,1-.15-.16l0-.25a1.07,1.07,0,0,0,.83-.84" transform="translate(-4.95 -13.33)"/></g><path class="cls-6" d="M49.6,49.89H34.28a2.07,2.07,0,0,1-2.07-2.07V16.67a2.07,2.07,0,0,1,2.07-2.07H49.6a2.07,2.07,0,0,1,2.07,2.07V47.82A2.07,2.07,0,0,1,49.6,49.89Z" transform="translate(-4.95 -13.33)"/><rect class="cls-7" x="27.25" y="4.93" width="19.47" height="24.34"/><circle class="cls-8" cx="36.99" cy="32.91" r="1.83"/><path class="cls-8" d="M41.94,17H39.51a.61.61,0,0,1,0-1.22h2.43a.61.61,0,1,1,0,1.22Z" transform="translate(-4.95 -13.33)"/><path class="cls-8" d="M44.37,17h-.61a.61.61,0,1,1,0-1.22h.61a.61.61,0,1,1,0,1.22Z" transform="translate(-4.95 -13.33)"/><path class="cls-9" d="M41.94,25.86A5.17,5.17,0,1,0,47.11,31,5.17,5.17,0,0,0,41.94,25.86ZM41,33.68l-2.28-2.28.76-.76L41,32.17l3.41-3.41.76.76Z" transform="translate(-4.95 -13.33)"/><path class="cls-10" d="M26.46,21.8l-.34-7.32L24,16.6c-4.24-4.17-10.8-4.38-14.66-.47s-3.55,10.47.69,14.65c-3.39-3.34-3.64-8.59-.55-11.72s8.34-3,11.72.37l-2.1,2.13Z" transform="translate(-4.95 -13.33)"/></svg>