<svg id="Layer_1" data-name="Layer 1" xmlns="http://www.w3.org/2000/svg" viewBox="0 0 563.97 236.99">
  <defs>
    <style>
      .cls-1 {
        fill: #fff;
      }
    </style>
  </defs>
  <title>traxion-logo-w</title>
  <g>
    <path class="cls-1" d="M87,69v9.68H61.91v70.19H50.73V78.64H25.61V69Z"/>
    <path class="cls-1" d="M115.62,87.63q1.38,0,3.17.17t3.52.46q1.73.29,3.17.58a19.53,19.53,0,0,1,2.13.52l-1.84,9.33a36.36,36.36,0,0,0-4.21-1.09A37,37,0,0,0,114,97a28.17,28.17,0,0,0-5.94.63q-2.94.63-3.86.86v50.37H93.49V91.43a72.87,72.87,0,0,1,9.45-2.59A60.71,60.71,0,0,1,115.62,87.63Z"/>
    <path class="cls-1" d="M157.34,87.4a31.09,31.09,0,0,1,10.89,1.67,17.68,17.68,0,0,1,7.15,4.72,17.93,17.93,0,0,1,3.86,7.26,35.14,35.14,0,0,1,1.15,9.28v37.46l-3.86.63q-2.48.41-5.59.75t-6.74.63q-3.63.29-7.2.29a39.46,39.46,0,0,1-9.33-1,20.87,20.87,0,0,1-7.38-3.28,15,15,0,0,1-4.84-5.94,20.78,20.78,0,0,1-1.73-8.87,17.08,17.08,0,0,1,2-8.53,16.08,16.08,0,0,1,5.47-5.76,25.36,25.36,0,0,1,8.07-3.23,43.93,43.93,0,0,1,9.68-1q1.61,0,3.34.17t3.29.46l2.71.52q1.15.23,1.61.35v-3a24.14,24.14,0,0,0-.58-5.24,12,12,0,0,0-2.07-4.61,10.51,10.51,0,0,0-4.09-3.23,16,16,0,0,0-6.74-1.21,50.66,50.66,0,0,0-9.28.75,32.69,32.69,0,0,0-5.94,1.56l-1.27-8.87a33,33,0,0,1,6.92-1.79A59.73,59.73,0,0,1,157.34,87.4Zm.92,53.71q3.8,0,6.74-.17a29.4,29.4,0,0,0,4.9-.63V122.44a13.77,13.77,0,0,0-3.75-1,41.72,41.72,0,0,0-6.28-.4,40.58,40.58,0,0,0-5.13.35,15.8,15.8,0,0,0-5,1.44,10.62,10.62,0,0,0-3.75,3,7.87,7.87,0,0,0-1.5,5q0,5.76,3.69,8T158.26,141.11Z"/>
    <path class="cls-1" d="M363.17,78.06a6.88,6.88,0,0,1-4.9-1.9,7.53,7.53,0,0,1,0-10.26,7.26,7.26,0,0,1,9.8,0,7.53,7.53,0,0,1,0,10.26A6.88,6.88,0,0,1,363.17,78.06Zm5.42,70.76H357.87V88.9h10.72Z"/>
    <path class="cls-1" d="M439.93,118.86a37.86,37.86,0,0,1-2.08,12.91,29.52,29.52,0,0,1-5.82,9.91,25.58,25.58,0,0,1-8.93,6.4,29.51,29.51,0,0,1-22.59,0,25.59,25.59,0,0,1-8.93-6.4,29.49,29.49,0,0,1-5.82-9.91,41,41,0,0,1,0-25.76,29.4,29.4,0,0,1,5.82-10,25.58,25.58,0,0,1,8.93-6.4,29.49,29.49,0,0,1,22.59,0A25.57,25.57,0,0,1,432,96a29.44,29.44,0,0,1,5.82,10A38,38,0,0,1,439.93,118.86Zm-11.18,0q0-10.14-4.55-16.08a15.9,15.9,0,0,0-24.78,0q-4.56,5.94-4.55,16.08t4.55,16.08a15.9,15.9,0,0,0,24.78,0Q428.74,129,428.75,118.86Z"/>
    <path class="cls-1" d="M455,90.63q3.69-.92,9.8-2a84.77,84.77,0,0,1,14.06-1,30.39,30.39,0,0,1,11.87,2,18.56,18.56,0,0,1,7.55,5.65,21.86,21.86,0,0,1,4,8.7,50.54,50.54,0,0,1,1.15,11.18v33.65H492.71V117.48A51.29,51.29,0,0,0,492,108a16,16,0,0,0-2.48-6.34,9.81,9.81,0,0,0-4.61-3.52,20.28,20.28,0,0,0-7.15-1.09q-1.73,0-3.57.12t-3.52.29q-1.67.17-3,.4l-1.9.35v50.6H455Z"/>
  </g>
  <path class="cls-1" d="M311.73,83l.77-.55c12.79-9.06,46.72-40.61,31.83-50.2-11.4-5.8-26,7.14-22.21,22.67,2.87,11.7,1.93,12.16-15.46,24.38a89.22,89.22,0,0,0-33.06-12.57c-37-6.36-70.71,9.9-75.24,36.3-2.8,16.33,6.21,32.72,22.25,44.35a290.05,290.05,0,0,0-32.11,34.87c-5.35,7-8.38,13.14-8.95,22,0,8.66,9.43,9.28,13.66,7.22,8.3-4.06,13.39-13.47,12.86-20.77-.9-12.56-4.64-8.27,13.34-30,2.56-3.09,5.09-6,7.72-8.86,9.07,5.62,18,8.41,30.06,10.47,37,6.36,70.71-9.9,75.24-36.3C335.16,110.08,327.15,94.61,311.73,83Zm-8.38-1.38c-4.2,3-9.19,6.54-15.13,11a32.23,32.23,0,0,0-4.71-2c-13.94-4.65-17.37-12.55-18.1-17.43,2.11-.14,4.26-.23,6.49-.23A62.72,62.72,0,0,1,303.35,81.65Zm-91.5,34.66c0-14.9,10.56-30.43,30.58-38.24.5,10.26,7,17.13,30.07,26.46-15.82,12.08-31.84,24.66-46.81,38.2C217.25,135.73,211.85,126.68,211.85,116.31ZM231,146.59c10.79-10.95,24.6-21.84,48.18-39.1,19.64,9.55,7.88,40.69,3.56,49.38a64.77,64.77,0,0,1-11.56,1.08C256.13,157.94,242.21,154.27,231,146.59Zm77.26-.09c4.63-20.36.57-40.58-13-50.76,4.72-3.39,8.56-6.12,14-10,11.82,8.41,18.46,19.11,18.46,30.54C327.67,127.53,319.9,138.59,308.23,146.5Z"/>
</svg>
