<svg xmlns="http://www.w3.org/2000/svg" viewBox="0 0 1432.93 274.66">
  <defs>
    <style>
      .cls-1 {
        opacity: 0.5;
      }

      .cls-2 {
        fill: #00bdde;
        opacity: 0.8;
      }
    </style>
  </defs>
  <title>traxion-bg-contact</title>
  <g id="Layer_2" data-name="Layer 2">
    <g id="landing">
      <g class="cls-1">
        <path class="cls-2" d="M752.11,141a1.56,1.56,0,0,0-1.33.32L739.52,129a1.56,1.56,0,0,0,.42-.72,1.58,1.58,0,0,0-3.08-.71,1.31,1.31,0,0,0,0,.18l-75.68,1.07a1.57,1.57,0,0,0-2.83-.71l-35.78-21.44a1.56,1.56,0,1,0-2.93-1,1.54,1.54,0,0,0,0,.41L564.13,114a1.54,1.54,0,0,0-2.88-.34l-57.4-22.26,0,0a1.58,1.58,0,0,0-3.07-.71,1.54,1.54,0,0,0,.06.82l-41.29,17.37a1.54,1.54,0,0,0-2.73,0L405.71,87.22s0-.06,0-.1a1.58,1.58,0,0,0-1.18-1.89,1.56,1.56,0,0,0-1.78.93L335.73,67a1.55,1.55,0,0,0-2.3-1.61L287.23,2.69a1.54,1.54,0,0,0,.46-.76,1.58,1.58,0,1,0-3.07-.71,1.52,1.52,0,0,0,0,.27L205.41,8a1.57,1.57,0,0,0-3.07,0,1.53,1.53,0,0,0,0,.76L136.64,35.48a1.55,1.55,0,0,0-1-.77,1.58,1.58,0,0,0-1.69,2.38L77.57,83.33a1.52,1.52,0,0,0-.71-.41A1.58,1.58,0,0,0,75,84.1a1.53,1.53,0,0,0,0,.41L3.07,96.32a1.55,1.55,0,0,0-1.13-1.09,1.58,1.58,0,1,0,.46,2.88L28,132.83a1.55,1.55,0,0,0-.51.8,1.58,1.58,0,0,0,1.18,1.89,1.56,1.56,0,0,0,1.5-.49l49.3,35.89a1.57,1.57,0,1,0,2.89,1.12,1.54,1.54,0,0,0,0-.74l57.84-22.19A1.54,1.54,0,0,0,143,149l68.83,17.13a1.54,1.54,0,0,0,2.64,1.28l56.5,43.9a1.54,1.54,0,0,0-.2.44,1.58,1.58,0,1,0,3.07,0l28.8-8.51a1.55,1.55,0,0,0,1.09,1,1.57,1.57,0,0,0,1.67-.69l54.95,27.4a1.56,1.56,0,0,0-.08.18,1.58,1.58,0,1,0,3.07.71,1.53,1.53,0,0,0-.07-.85l63.87-30.88a1.56,1.56,0,0,0,2.56.11L485.79,234a1.5,1.5,0,0,0-.13.28,1.58,1.58,0,1,0,3.07.71,1.55,1.55,0,0,0-.12-1L532,208.88a1.56,1.56,0,0,0,.91.62,1.58,1.58,0,0,0,1.89-1.18,1.54,1.54,0,0,0,0-.72l63.28-23.54a1.56,1.56,0,0,0,1,.82,1.57,1.57,0,0,0,1.65-2.42l15.21-13,65.05-.15a1.57,1.57,0,0,0,3.09.15,1.55,1.55,0,0,0,0-.73l66.3-25.39a1.56,1.56,0,0,0,1,.8,1.58,1.58,0,0,0,.71-3.07ZM3.13,96.7,75,84.9a1.53,1.53,0,0,0,.29.54L30,132.74a1.55,1.55,0,0,0-1.76-.09L2.61,97.91a1.53,1.53,0,0,0,.51-.8A1.56,1.56,0,0,0,3.13,96.7ZM534.53,207.06a1.53,1.53,0,0,0-.54-.45l13.72-36.28a1.56,1.56,0,0,0,1.2-1l36.65,10.28ZM362.15,229.91a1.61,1.61,0,0,0-.5,0l-14.94-68.81a1.55,1.55,0,0,0,1-1.07l37.83,6.35a1.54,1.54,0,0,0,.81,1.49l-24.18,62.07Zm-57.72-28.78a1.55,1.55,0,0,0-.81.05L277.9,142.44a1.54,1.54,0,0,0,.64-.77l66.12,17.73a1.54,1.54,0,0,0,.34,1.2l-40,40.83A1.52,1.52,0,0,0,304.43,201.13ZM30.22,133,75.56,85.71a1.57,1.57,0,0,0,.59.28,1.48,1.48,0,0,0,.53,0l7.1,36.06a1.56,1.56,0,0,0-1.11,1.14,1.53,1.53,0,0,0,0,.48l-52.15,9.85A1.57,1.57,0,0,0,30.22,133Zm106-95.52,36,38.73a1.55,1.55,0,0,0-.35.65l-37.56-5.91a1.56,1.56,0,0,0-1.19-1.65H133l2.25-31.51A1.54,1.54,0,0,0,136.21,37.48ZM285.75,3.09l-8.26,51.56a1.56,1.56,0,0,0-1.62,1.19s0,0,0,.07l-36-3.58a1.52,1.52,0,0,0-.35-1L285.22,2.84A1.53,1.53,0,0,0,285.75,3.09Zm46.89,63.52a1.62,1.62,0,0,0,0,.39l-26.51,8.36L278.78,56.9a1.74,1.74,0,0,0,.12-.26Zm287.21,40.22a1.58,1.58,0,0,0,.72.57l-16.76,59.66L574.23,129Zm40.67,23.47a1.55,1.55,0,0,0,.57-.77l52,12s0,0,0,.07l-44.95,2ZM713.07,142a1.54,1.54,0,0,0,.28.65L683.65,168a1.52,1.52,0,0,0-.73-.43,1.54,1.54,0,0,0-1,.13l-13.58-23.72Zm.47.85a1.52,1.52,0,0,0,.73.43,1.58,1.58,0,0,0,1.89-1.18,1.39,1.39,0,0,0,0-.19L719,142l-33,24.3Zm2.63-1.2s0-.09,0-.14l4.94-1.07-1.74,1.28Zm-70.77,2a1.45,1.45,0,0,0-1.24-.36l12.32-11.12Zm-2.53.8,0,0a1.56,1.56,0,0,0,.15,1.05l-4.34,2.71Zm2.67-.65,13.08-13.56a1.53,1.53,0,0,0,.65.35,1.55,1.55,0,0,0,1-.12l7.54,13.16-21.86,1A1.56,1.56,0,0,0,645.54,143.78ZM736.1,137l-13.7,3,5.38-4,8.33.83A1.41,1.41,0,0,0,736.1,137Zm0-.59h0l-7.85-.78,9-6.65a1.54,1.54,0,0,0,.77.48,1.27,1.27,0,0,0,.15,0l-.49,5.75A1.55,1.55,0,0,0,736.12,136.39Zm-8.4-.83-1.93-.19,10.34-6Zm-.48.35-5.71,4.21-5.41,1.17a1.61,1.61,0,0,0-.1-.25l9.17-5.33Zm-11.32,4.93a1.55,1.55,0,0,0-2.76.38L662.41,129.5l62.4,6.18Zm-72.31,2.37-.87-1.46,13.81-10.23Zm-.22.19-6.71,6.06-28,17.48,33.8-25ZM498.75,195a1.56,1.56,0,0,0-.62-.51l12.69-35,8.47,2.19L525,180.76Zm-151-35.21a1.55,1.55,0,0,0-.26-1l19.87-17.82L386,165.37a1.54,1.54,0,0,0-.45.72Zm-69.1-18.44a1.53,1.53,0,0,0,0-.61L327,121.39l18.34,36.92a1.57,1.57,0,0,0-.57.73ZM134.26,71.37a1.29,1.29,0,0,0,.07-.15l37.56,5.91a1.54,1.54,0,0,0,.73,1.43l-4.45,9.93Zm199.57-3.09a1.63,1.63,0,0,0,.3,0l1,25.48a1.56,1.56,0,0,0-1,.53l-13.54-9.15,12.77-17.09A1.58,1.58,0,0,0,333.83,68.27Zm33.8,72.4,30.72-27.55-11.13,51.82a1.57,1.57,0,0,0-.92.19ZM315,95.08l11.66,6.8-6.41,5-5.68-11.43A1.58,1.58,0,0,0,315,95.08Zm.11-.24a1.62,1.62,0,0,0,.14-.31s0,0,0-.06l18.53,1a1.55,1.55,0,0,0,.2.69l-7.1,5.58Zm19.13,1.57a1.3,1.3,0,0,0,1.17.45l1.85,10.9-10-5.84Zm10.86,17.34L339,116.17l-1.33-7.84,7.5,4.37a1.47,1.47,0,0,0-.14.31A1.54,1.54,0,0,0,345.08,113.76Zm.14.36a1.56,1.56,0,0,0,1,.78,1.42,1.42,0,0,0,.2,0l-.36,42.89-7-41.23Zm.08-1.66L337.64,108l-1.9-11.19a1.61,1.61,0,0,0,.31-.12l9.63,15.41A1.54,1.54,0,0,0,345.3,112.46ZM312.15,93.92,258,91.14s0-.1,0-.15l40.29-12.71L312.5,93.17a1.54,1.54,0,0,0-.36.66S312.15,93.89,312.15,93.92Zm1.19,1.8a1.54,1.54,0,0,0,.87-.08l5.73,11.52L278.2,140h0l34.68-44.47A1.55,1.55,0,0,0,313.33,95.72Zm-34.88,44.55,41.65-32.75L326.82,121l-48.35,19.29A.44.44,0,0,0,278.45,140.27Zm42-33,6.59-5.18,10.29,6,1.39,8.21-11.51,4.59Zm18.34,9.42,7,41.42-.08,0-18.34-36.91Zm7.8,41.38a1.73,1.73,0,0,0-.2,0l.36-43.16a1.55,1.55,0,0,0,.67-.2l19.73,25.88-19.9,17.85A1.57,1.57,0,0,0,346.56,158.08Zm1.11-43.6a1.54,1.54,0,0,0,.46-.76,1.42,1.42,0,0,0,0-.34l51.24-5-.88,4.1-31.1,27.89Zm51.21-1.83,4.16-3.73a1.62,1.62,0,0,0,.43.25l-15,52.07Zm3.64-5s0,.05,0,.08l-2.63.26.17-.78Zm0,.41a1.56,1.56,0,0,0,.25.57L399,112l.79-3.67ZM406.9,113l28.31,48.67-.9,2.07-1.72.09Zm111.82-9.34L532.45,135l-16.14,11.15a1.54,1.54,0,0,0-.82-.53h-.12L518,103.12Zm40.67,30.9a1.54,1.54,0,0,0-.19.43,1.6,1.6,0,0,0,0,.61l-2.49.64.86-3.08ZM547,167.28l-11.12-25.37,20.33-5.26-8.51,30.58A1.55,1.55,0,0,0,547,167.28ZM516.51,146.4l16.08-11.11,2.83,6.46-18.82,4.87A1.74,1.74,0,0,0,516.51,146.4Zm0,1.5a1.52,1.52,0,0,0,.18-.4,1.58,1.58,0,0,0,0-.61L535.53,142l11.14,25.41a1.55,1.55,0,0,0-.42.37Zm40.11-11.33,2.67-.69a1.53,1.53,0,0,0,.73.84l-1.06,2.81-10.59,26.7Zm-.27-.23-20.54,5.31-2.88-6.58,14.22-9.82L557.27,133Zm-23.56-1.57-13.42-30.62,27.5,20.9ZM487,152.9l-15.33-4s0-.07,0-.1l41.51-1.47ZM438.1,163.25h0l19.69-8.84-17.93,8.47Zm-2.39-.73a1.56,1.56,0,0,0-.61.9,1.49,1.49,0,0,0,0,.29l-.4,0,.74-1.69ZM434.55,164l.53,0a1.58,1.58,0,0,0,.24.63l-.61.44a1.55,1.55,0,0,0-.44-.38Zm.3,1.21,0-.07.61-.44.16.17Zm3.34-1.6.08,0-.08,0S438.19,163.66,438.19,163.65Zm2.81-1,27.75-13.11a1.54,1.54,0,0,0,.24.28l-6.9,8.36Zm28.25-12.59a1.5,1.5,0,0,0,.5.23,1.55,1.55,0,0,0,1-.12l3.2,5.51-11.29,2.39Zm1.77,0a1.54,1.54,0,0,0,.52-.68l14.55,3.77-11.82,2.5Zm-2.32-1.9a1.48,1.48,0,0,0-.13.29,1.53,1.53,0,0,0,.08.87L438,163a1.52,1.52,0,0,0-.65-.62l10.75-27.07Zm-34.52,16-.21.49-.11,0a1.53,1.53,0,0,0-.89.08l-.23-.45Zm.77,1.44.86-.4a1.52,1.52,0,0,0,.36.16l-.38,1.64-.81-.38s0-.08.06-.13A1.54,1.54,0,0,0,434.95,165.5Zm3.23-1.53,1.22-.58,22.27-4.72-10.4,12.6-13.19-7a1.35,1.35,0,0,0,.09-.2A1.41,1.41,0,0,0,438.18,164Zm49.68-10.84,25.82-5.47a1.53,1.53,0,0,0,.79.88L510.66,159Zm26.89-4.46,0,0a1.56,1.56,0,0,0,.64,0l3.74,12.54-8.2-2.12Zm1-.1a1.58,1.58,0,0,0,.62-.45L546.11,168a1.49,1.49,0,0,0-.08.17l-26.49-6.86Zm43.88-14.31-.09-.07-1.86-1.47,4.69-16.83h0l-1.61,17.91A1.55,1.55,0,0,0,559.62,134.26Zm-101.8-23.19a1.55,1.55,0,0,0,.68,0l11,36.24a1.57,1.57,0,0,0-.63.45l-20.63-12.81L457.75,111Zm-55.2-3.93s0,.09-.06.15l-2.44-.44.23-1ZM333.93,94.61a1.55,1.55,0,0,0-.16.35s0,0,0,.07l-18.53-1a1.55,1.55,0,0,0-.52-1.07l5.65-7.57ZM298,77.94,257.84,90.6a1.51,1.51,0,0,0-.48-.62l19.37-32.39a1.61,1.61,0,0,0,.32.15,1.56,1.56,0,0,0,1.31-.31ZM276.48,57.48,257.11,89.87a1.47,1.47,0,0,0-.32-.15,1.53,1.53,0,0,0-.88.08l-9.53-20.52L276,57A1.59,1.59,0,0,0,276.48,57.48ZM238,53.84a1.56,1.56,0,0,0,.88-.08L246,69,214.4,82.12l23.11-28.5A1.57,1.57,0,0,0,238,53.84ZM213.71,82.41l-4.7,2a1.4,1.4,0,0,0-.15-.19l0-.07,26.55-28.4ZM207,86.52a1.58,1.58,0,0,0,.34.15,1.47,1.47,0,0,0,.26,0l.22,3.06-9.73,12Zm1,.15a1.57,1.57,0,0,0,1.22-1.18h0l1.85.23-2.89,3.56Zm1.23-1.5a1.5,1.5,0,0,0,0-.45l4-1.68-1.94,2.39ZM174.56,78.3a1.58,1.58,0,0,0,.35-.59l28.75,6.64a1.57,1.57,0,0,0,1.19,1.77,1.55,1.55,0,0,0,1.32-.32,1.47,1.47,0,0,0,.13.15,1.56,1.56,0,0,0,.47.5l-9.05,15.46a1.48,1.48,0,0,0-.34-.15,1.54,1.54,0,0,0-1.3.3Zm37.11,7.19,2.22-2.73,32.24-13.38,9.53,20.51a1.57,1.57,0,0,0-.75,1h0Zm176,79.56,16.1-55.78a1.57,1.57,0,0,0,.8-.09l27.62,54.67-43.55,2.39A1.55,1.55,0,0,0,387.68,165.06Zm74.55-6.5L474.15,156l22.39,38.54a1.57,1.57,0,0,0-.38.37l-44.57-23.5Zm35.58,35.74a1.55,1.55,0,0,0-1,.12L474.48,156,487,153.32l23.55,6.1-12.67,34.9Zm50.35-26.91,5.28-13.32-5.07,13.41A1.36,1.36,0,0,0,548.16,167.39Zm13.91-31.23a1.5,1.5,0,0,0,.21-.46,1.52,1.52,0,0,0-.07-.86l8.84-4.29,11.19,21Zm0-20.37L557.4,132.5l-9.68-7.67,13.72-9.48A1.53,1.53,0,0,0,562,115.79Zm-43-12.37-.27-.61a1.55,1.55,0,0,0,.31-.27l28,22.22Zm-2.7-1.57.17.13a1.54,1.54,0,0,0,.23.43l-9.5,9.38-1.93-8.46Zm.65.83a1.55,1.55,0,0,0,.62.32h.12l-2.64,42.6H515l-7.61-33.38Zm-2.35,43a1.55,1.55,0,0,0-.69.46L489.4,129.93l17.67-17.45Zm-.88.77a.82.82,0,0,0-.16.61l-41.94,1.49a1.55,1.55,0,0,0-.33-.76l17.81-17.59Zm-42.68,1.07-.06-.06,11.91-21.36,5.89,3.89Zm-.39-.21a1.32,1.32,0,0,0-.24-.11,1.52,1.52,0,0,0-.68,0l-11-36.24a1.53,1.53,0,0,0,.61-.43l23.27,15.36ZM448,134.77l-.5-.31,6.89-15.78Zm-.15.37-10.77,27.11-.07,0a1.55,1.55,0,0,0-.76,0l-.44-1.05,11.52-26.38ZM435.6,160.78l-18.93-45L447,134.65Zm-.32.31L405,109a1.41,1.41,0,0,0,.28-.26l10.8,6.7Zm-32.47-54.31-2.38-1.39,3.67-17.07h0L404,106.19A1.55,1.55,0,0,0,402.81,106.78ZM400,105.58l-.25,1.19-27.6-5,12-5.52Zm-.33,1.55-.19.9-51.32,5a1.66,1.66,0,0,0-.07-.17L371.52,102Zm-51.7,5.42a1.58,1.58,0,0,0-1-.72,1.6,1.6,0,0,0-.61,0l-4-15,28.6,5.17Zm-1.89-.64a1.39,1.39,0,0,0-.2.08l-9.63-15.41a1.55,1.55,0,0,0,.58-.81l5.21.94Zm-9.19-16.51s0-.06,0-.1l4.62-.57.42,1.58Zm0-.47a1.57,1.57,0,0,0-1.16-1.16,1.6,1.6,0,0,0-.3,0l-1-25.48h.09l6.94,26.09Zm-16.66-9.64-5.64,7.56a1.59,1.59,0,0,0-.48-.22,1.55,1.55,0,0,0-1.31.31L298.61,78.17l7.5-2.36Zm-21.87-7.47L278.61,57.23l27.06,18.28ZM275.91,56.61,246.22,68.93l-7.09-15.26a1.56,1.56,0,0,0,.76-1s0,0,0-.07l36,3.58A1.49,1.49,0,0,0,275.91,56.61Zm-38.72-3.27L208.62,83.89a1.53,1.53,0,0,0-.76-.46,1.56,1.56,0,0,0-.23,0l-.89-18.79L237,53A1.37,1.37,0,0,0,237.19,53.34ZM207.24,83.42a1.56,1.56,0,0,0-.69.34,1.56,1.56,0,0,0-2.83.35L175,77.46a1.53,1.53,0,0,0,0-.61l31.42-12.06ZM173,78.73l.1,0a1.55,1.55,0,0,0,1.3-.3l21.51,23.75a1.59,1.59,0,0,0-.17.19L168.52,88.67Zm25.15,23.47,9.67-11.93.74,10.51-10,2A1.54,1.54,0,0,0,198.13,102.2Zm10.05-12.4,3.27-4,43.44,5.45a1.33,1.33,0,0,0,0,.18l-45.94,9.29ZM258,91.61s0,0,0-.07l54.16,2.79a1.55,1.55,0,0,0,.47,1l-34.68,44.46a1.57,1.57,0,0,0-.47-.21,1.54,1.54,0,0,0-.8,0l-19.49-47A1.55,1.55,0,0,0,258,91.61Zm174.38,72.54.29.57a1.55,1.55,0,0,0-.68,1,1.5,1.5,0,0,0,0,.23l-38.34.37Zm2.47,2.7.88.41L429.06,196l4.32-28.43A1.55,1.55,0,0,0,434.82,166.86Zm-5.9,30.87,7-30.35,13.4,6.25-20,24.28A1.67,1.67,0,0,0,428.92,197.72ZM436,167l.39-1.7a1.56,1.56,0,0,0,1.52-.65l13.1,6.91-1.45,1.76Zm15.33,4.73,39.38,20.76-40.81-19Zm68.33-9.95,26.25,6.8a1.55,1.55,0,0,0,.11.78l-20.75,11.23Zm26.5,7.87a1.56,1.56,0,0,0,.64.52l-12.14,33.51-1,2.76h0a1.55,1.55,0,0,0-.63,0l-7.61-25.51Zm.89.63,0,0c.06,0,.12,0,.18,0l-5.71,15.1Zm1.61-2.5,11.69-30.91h0a1.57,1.57,0,0,0,1.2-.21l26,32.27L549,168.62A1.53,1.53,0,0,0,548.67,167.79Zm13.16-31.35,0,0,20.73,15.77,9,16.79-3.5,0Zm37.08,45.47-3.73-7,7.58-4.07-3.08,11A1.52,1.52,0,0,0,598.91,181.9ZM595,174.56l-2.8-5.25,11,.09-.25.9Zm8.6-5.15h.15a1.53,1.53,0,0,0,.1.39l-.43.23Zm1.9-1.69a1.56,1.56,0,0,0-1,.19l-.34-.44,13.53-48.18Zm-1.29.44,0,0L604,168l0-.14Zm-.24.29a1.54,1.54,0,0,0-.21.45,1.37,1.37,0,0,0,0,.18h-.07l.2-.7Zm-.7.63L592,169l-8.66-16.22,20.17,15.35Zm-11.53.23,2.9,5.44-1.33.71-5-6.18Zm3.1,5.8,3.53,6.61-4.79-5.94Zm8.43-4.53.77-.41a1.54,1.54,0,0,0,.59.48L600.32,181Zm-32.39-40.35-8.81,4.28a1.57,1.57,0,0,0-1-.69H561l1.61-17.91a1.51,1.51,0,0,0,.59-.1ZM505.24,103l-2.41-10.58a1.54,1.54,0,0,0,.61-.38L516,101.56ZM403.69,88.23l-3.64,16.93L384.53,96l18.34-8.46A1.56,1.56,0,0,0,403.69,88.23ZM333.16,67.91,320.38,85l-13.83-9.35,26.22-8.27A1.58,1.58,0,0,0,333.16,67.91Zm-191.26,79a1.46,1.46,0,0,0-.33,0l-8.41-74.49a1.55,1.55,0,0,0,.93-.64L168,88.84,142,146.9Zm464.51,21.34a1.55,1.55,0,0,0-.58-.39L621,107.53a1.55,1.55,0,0,0,.88-.14l20.46,34.23Zm-2.72-.68-.08.27L583,152.08,571.4,130.37l2.5-1.21ZM571.23,130l-7.38-13.81,9.82,12.63Zm-10.15-16a1.56,1.56,0,0,0,.17,1l-13.79,9.53L519.28,102.3a1.78,1.78,0,0,0,.12-.27Zm-44.66-12.62-10.09-7.67,10.29,6.91a1.49,1.49,0,0,0-.2.43A1.43,1.43,0,0,0,516.42,101.43ZM502,92.5a1.57,1.57,0,0,0,.54,0l2.4,10.54L495,104.38l6.69-12A1.74,1.74,0,0,0,502,92.5Zm3,10.88,2,8.69-17.88,17.66-6-3.95,11.73-21Zm-22.18,22.2-23.26-15.36a1.63,1.63,0,0,0,.15-.34,1.48,1.48,0,0,0,0-.39l34.68-4.68ZM457.4,110.88l-10.22,23.4-30.77-19.1-2.93-7,43.15,1.43A1.54,1.54,0,0,0,457.4,110.88Zm-41.61,3.92-10.33-6.41a1.6,1.6,0,0,0,.13-.28s0-.1,0-.15l7.42.25Zm-10.19-7.16a1.56,1.56,0,0,0-1.19-1.43,1.48,1.48,0,0,0-.24,0l.14-17.88a1.37,1.37,0,0,0,.32,0l8.25,19.6Zm-2.85-20.38-18.58,8.57-9-5.27,27.53-3.41A1.15,1.15,0,0,0,402.75,87.26Zm-19,8.78-12.2,5.63-29.29-5.3-.45-1.68,32.74-4.06Zm-42-1.7-7-26.15a1.55,1.55,0,0,0,.7-.49L374,90.33ZM236.83,52.69,206.72,64.25l-2.57-54.4a1.62,1.62,0,0,0,.57-.22l32.55,41.56a1.42,1.42,0,0,0-.43,1.5ZM203.53,9.84a1.56,1.56,0,0,0,.23,0l2.58,54.55L174.81,76.51a1.54,1.54,0,0,0-.58-.61l29.2-66.1Zm-71.91,62L85.13,122.29a1.57,1.57,0,0,0-.57-.26,1.63,1.63,0,0,0-.53,0L76.93,86a1.51,1.51,0,0,0,1.12-1.7l53.28-12.89A1.56,1.56,0,0,0,131.62,71.84ZM85.39,122.56l46.48-50.44a1.6,1.6,0,0,0,.57.26,1.73,1.73,0,0,0,.33,0l8.41,74.49a1.55,1.55,0,0,0-1,.75L85.7,124s0-.07,0-.1A1.54,1.54,0,0,0,85.39,122.56Zm57,24.5,26-58,27.19,13.73a1.23,1.23,0,0,0,.13,1.37l-53.07,43.16A1.43,1.43,0,0,0,142.36,147.07Zm56.2-43.43a1.56,1.56,0,0,0,0-.5l10-2,4.45,63.1-15.44-59.49A1.55,1.55,0,0,0,198.56,103.64Zm15.16,61.1a1.68,1.68,0,0,0-.26,0L209,101l46-9.3a1.49,1.49,0,0,0,1.93,1l19.48,47a1.49,1.49,0,0,0-.77,1.77l-60.86,24A1.55,1.55,0,0,0,213.72,164.73Zm174.91,1.89,43.31-.42a1.56,1.56,0,0,0,1.2,1.38l-4.58,30.1a1.54,1.54,0,0,0-1.23.46l-38.93-30.8a1.54,1.54,0,0,0,.22-.49A1.47,1.47,0,0,0,388.64,166.62Zm40.93,31.52,20.1-24.36L496,195.35a1.09,1.09,0,0,0-.06.13,1.44,1.44,0,0,0,0,.25L430,199A1.55,1.55,0,0,0,429.57,198.14Zm69.32-2.89,26.19-14.17,7.59,25.47a1.54,1.54,0,0,0-.81.81L499,196.22v0A1.54,1.54,0,0,0,498.89,195.25ZM549,169s0-.06,0-.09l38.86.32,5.12,6.35-7,3.78Zm44.25,6.91,5.09,6.31a1.56,1.56,0,0,0-.34.52l-11.48-3.22Zm6.86,6,4.65-11.24a1.14,1.14,0,0,0,.16.07,1.58,1.58,0,0,0,1.89-1.18c0-.06,0-.11,0-.16l7.75,0-14.11,12.74A1.58,1.58,0,0,0,600.13,182Zm6.71-12.91a1.54,1.54,0,0,0-.16-.5l28.79-18L615,169Zm39.1-24.12L668,144l13.65,23.83a1.61,1.61,0,0,0-.35.32l-35.54-22.6a1.53,1.53,0,0,0,.16-.35A1.41,1.41,0,0,0,645.94,144.93Zm73.71-3,8.44.19-42.66,25Zm.34-.25,2-1.48,14.17-3.06a1.67,1.67,0,0,0,.08.2l-7.74,4.54Zm16.43-4a1.53,1.53,0,0,0,2.64-.26l11.24,4.65a.46.46,0,0,0-.08.35l-21-.48Zm-99,11.64,5.28-3.3L615.9,169h-.28Zm112.91-7.42-11.24-4.65a1.64,1.64,0,0,0,.07-.16,1.58,1.58,0,0,0-1.18-1.89s-.1,0-.15,0l.49-5.75a1.52,1.52,0,0,0,1-.33l11.26,12.38A1.56,1.56,0,0,0,750.36,141.91ZM737,128.6l-11.61,6.74-62.22-6.16,73.67-1A1.51,1.51,0,0,0,737,128.6Zm-78.74,1.21-15.72,11.64-20.44-34.2a1.57,1.57,0,0,0,.36-.33l35.78,21.44a1.52,1.52,0,0,0-.14.32A1.55,1.55,0,0,0,658.27,129.81ZM619.72,106.5,574,128.7l-10.3-13.25a1.51,1.51,0,0,0,.45-.75,1.55,1.55,0,0,0,0-.41l55.51-7.92S619.71,106.46,619.72,106.5ZM519.5,101.75a1.57,1.57,0,0,0-2.79-1.25l-13-8.71-.07,0,0-.06,55.51,21.53Zm-18.1-9.51-6.81,12.2-34.91,4.71,0-.09L501,91.7A1.56,1.56,0,0,0,501.41,92.24Zm-44.78,17.08-43.3-1.43L405,88.13a1.57,1.57,0,0,0,.56-.6l51.11,21.56s0,.06,0,.1S456.64,109.27,456.63,109.32Zm-54-22.54-28,3.47-39-22.9,67,19.18A1.67,1.67,0,0,0,402.67,86.78Zm-70-20.49-53.74-10a1.55,1.55,0,0,0-1.14-1.63l8.26-51.56a1.57,1.57,0,0,0,.84-.18l46.2,62.67A1.56,1.56,0,0,0,332.69,66.29ZM285,2.57,239.28,51A1.57,1.57,0,0,0,237.5,51L205,9.42a1.54,1.54,0,0,0,.46-.76,1.55,1.55,0,0,0,0-.27l79.2-6.47A1.54,1.54,0,0,0,285,2.57ZM203.08,9.64l-29.2,66.1-.09,0a1.55,1.55,0,0,0-1.29.29L136.44,37.27a1.52,1.52,0,0,0,.37-.67,1.55,1.55,0,0,0,0-.76L202.52,9.07A1.56,1.56,0,0,0,203.08,9.64ZM134.91,37.78H135l-2.25,31.51A1.51,1.51,0,0,0,131.24,71L78,83.94a1.55,1.55,0,0,0-.12-.32L134.2,37.37A1.57,1.57,0,0,0,134.91,37.78ZM30.57,133.86,82.72,124a1.56,1.56,0,0,0,1.13,1.09H84l-3.17,45a1.55,1.55,0,0,0-1.11.5l-49.3-35.89a1.58,1.58,0,0,0,.19-.41A1.56,1.56,0,0,0,30.57,133.86Zm50.6,36.3h-.1l3.17-45a1.55,1.55,0,0,0,1.31-.78l54.5,23.6s0,.07,0,.1a1.54,1.54,0,0,0,0,.74L82.2,171A1.55,1.55,0,0,0,81.17,170.16Zm61.71-22.61,53.07-43.16a1.52,1.52,0,0,0,.72.42,1.59,1.59,0,0,0,.58,0l15.57,60a1.54,1.54,0,0,0-.89.89l-68.83-17.13A1.56,1.56,0,0,0,142.88,147.55Zm72,18.32,60.86-24a1.55,1.55,0,0,0,1,.8h.06l-4.6,67.89a1.55,1.55,0,0,0-1,.45l-56.5-43.9a1.34,1.34,0,0,0,.17-1.19Zm57.78,44.66h-.06l4.6-67.89a1.51,1.51,0,0,0,.37-.06l25.73,58.74a1.56,1.56,0,0,0-.75,1,1.52,1.52,0,0,0,0,.68l-28.8,8.52A1.55,1.55,0,0,0,272.66,210.52Zm32.62-8.84,40-40.83a1.39,1.39,0,0,0,1.11.32L361.28,230a1.55,1.55,0,0,0-.8.61L305.54,203.2a1.59,1.59,0,0,0,.08-.18A1.55,1.55,0,0,0,305.28,201.68Zm57.84,28.91a1.55,1.55,0,0,0-.59-.51L386.7,168l0,0a1.55,1.55,0,0,0,1.47-.46l38.93,30.8a1.58,1.58,0,0,0-.22.49,1.54,1.54,0,0,0,.07.85ZM430,199.32l65.9-3.22a1.56,1.56,0,0,0,1,1.2l-9.46,35.82a1.56,1.56,0,0,0-1.51.58l-56.1-33.85a1.51,1.51,0,0,0,.13-.28A1.4,1.4,0,0,0,430,199.32Zm58.47,34.43a1.55,1.55,0,0,0-.74-.55l9.46-35.82a1.55,1.55,0,0,0,1.69-.92l32.87,11.14v0a1.53,1.53,0,0,0,.12,1Zm97.67-54,11.78,3.3a1.56,1.56,0,0,0,0,.63L535.88,206.8Zm29-10.35h.25l-5.06,4.34Zm28.15-23.48a1.54,1.54,0,0,0,.71.41,1.57,1.57,0,0,0,1.6-.58l35.54,22.6a1.55,1.55,0,0,0-.16.35,1.28,1.28,0,0,0,0,.16l-64.6.14Zm85.41-3.77,21.46.49a1.61,1.61,0,0,0,0,.28l-65.68,25.15Z"/>
        <path class="cls-2" d="M680.82,133.62a1.56,1.56,0,0,0,1.33-.32l11.26,12.38a1.54,1.54,0,0,0-.42.72,1.58,1.58,0,0,0,3.08.71,1.35,1.35,0,0,0,0-.18l75.68-1.07a1.57,1.57,0,0,0,2.83.71L810.35,168a1.53,1.53,0,0,0-.14.32,1.58,1.58,0,0,0,3.07.71,1.55,1.55,0,0,0,0-.41l55.51-7.92a1.54,1.54,0,0,0,2.88.34l57.4,22.26s0,0,0,0a1.58,1.58,0,0,0,3.07.71,1.54,1.54,0,0,0-.06-.82l41.29-17.37a1.54,1.54,0,0,0,2.73,0l51.1,21.55s0,.06,0,.1a1.58,1.58,0,0,0,1.18,1.89,1.56,1.56,0,0,0,1.78-.93l67.07,19.19a1.55,1.55,0,0,0,2.3,1.61l46.2,62.67a1.53,1.53,0,0,0-.47.76,1.58,1.58,0,0,0,3.08.71,2.18,2.18,0,0,0,0-.27l79.2-6.48a1.57,1.57,0,0,0,3.07,0,1.5,1.5,0,0,0,0-.76l65.75-26.77a1.54,1.54,0,0,0,1,.77,1.58,1.58,0,0,0,1.69-2.38l56.37-46.25a1.51,1.51,0,0,0,.71.41,1.58,1.58,0,0,0,1.89-1.18,1.66,1.66,0,0,0,0-.41l71.89-11.8a1.55,1.55,0,0,0,1.13,1.09,1.58,1.58,0,1,0-.46-2.88l-25.6-34.73a1.53,1.53,0,0,0,.51-.8,1.58,1.58,0,0,0-1.18-1.89,1.55,1.55,0,0,0-1.5.49l-49.3-35.89a1.55,1.55,0,0,0,.19-.41,1.58,1.58,0,1,0-3.07-.71,1.53,1.53,0,0,0,0,.74l-57.84,22.19a1.54,1.54,0,0,0-2.83.16l-68.84-17.13a1.54,1.54,0,0,0-2.64-1.28L1162,63.39a1.6,1.6,0,0,0,.2-.44,1.58,1.58,0,1,0-3.07,0l-28.8,8.52a1.54,1.54,0,0,0-2.76-.3l-54.95-27.4a1.46,1.46,0,0,0,.08-.18,1.58,1.58,0,0,0-3.07-.71,1.53,1.53,0,0,0,.07.85L1005.8,74.6a1.56,1.56,0,0,0-1-.69,1.58,1.58,0,0,0-1.6.58l-56.1-33.85a1.46,1.46,0,0,0,.13-.28,1.58,1.58,0,1,0-3.07-.71,1.56,1.56,0,0,0,.12,1L900.92,65.77a1.55,1.55,0,0,0-.91-.62,1.58,1.58,0,0,0-1.89,1.18,1.54,1.54,0,0,0,0,.72L834.86,90.59a1.56,1.56,0,0,0-1-.82,1.57,1.57,0,0,0-1.65,2.43l-15.21,13-65.05.15a1.57,1.57,0,1,0-3.07.58l-66.3,25.39a1.55,1.55,0,0,0-1-.8,1.58,1.58,0,1,0-.71,3.07Zm749,44.34-71.89,11.81a1.57,1.57,0,0,0-.29-.55L1403,141.92a1.59,1.59,0,0,0,.59.28,1.56,1.56,0,0,0,1.17-.19l25.6,34.73a1.53,1.53,0,0,0-.51.8A1.62,1.62,0,0,0,1429.8,178ZM898.39,67.6a1.51,1.51,0,0,0,.54.45l-13.72,36.28a1.56,1.56,0,0,0-1.2,1L847.36,95Zm172.39-22.85a1.55,1.55,0,0,0,.5,0l14.94,68.81a1.55,1.55,0,0,0-1,1.07l-37.83-6.35a1.55,1.55,0,0,0-.81-1.49l24.18-62.07Zm57.71,28.78a1.54,1.54,0,0,0,.81-.05L1155,132.22a1.56,1.56,0,0,0-.64.77l-66.12-17.73a1.54,1.54,0,0,0-.34-1.2l40-40.83A1.55,1.55,0,0,0,1128.49,73.53Zm274.21,68.12-45.34,47.3a1.61,1.61,0,0,0-.59-.29,1.44,1.44,0,0,0-.53,0l-7.1-36.06a1.57,1.57,0,0,0,1.11-1.14,1.59,1.59,0,0,0,0-.48l52.15-9.85A1.53,1.53,0,0,0,1402.7,141.65Zm-106,95.52-36-38.73a1.54,1.54,0,0,0,.35-.65l37.56,5.91a1.57,1.57,0,0,0,1.19,1.65h.12l-2.25,31.51A1.55,1.55,0,0,0,1296.72,237.17Zm-149.55,34.39,8.26-51.56a1.56,1.56,0,0,0,1.62-1.19s0,0,0-.07l36,3.58a1.54,1.54,0,0,0,.35,1l-45.68,48.47A1.56,1.56,0,0,0,1147.17,271.57ZM1100.29,208a1.6,1.6,0,0,0,0-.39l26.51-8.36,27.34,18.47a1.83,1.83,0,0,0-.12.26ZM813.07,167.82a1.6,1.6,0,0,0-.72-.58l16.76-59.66,29.59,38.07ZM772.4,144.35a1.56,1.56,0,0,0-.57.77l-52-12s0,0,0-.07l44.95-2Zm-52.54-11.68a1.54,1.54,0,0,0-.28-.65l29.7-25.34a1.5,1.5,0,0,0,.73.43,1.52,1.52,0,0,0,1-.13l13.58,23.72Zm-.47-.85a1.51,1.51,0,0,0-.73-.43,1.58,1.58,0,0,0-1.89,1.18,1.47,1.47,0,0,0,0,.19l-2.88-.06,33-24.3ZM716.76,133s0,.1,0,.14l-4.94,1.07,1.74-1.28Zm70.77-2a1.45,1.45,0,0,0,1.24.36l-12.32,11.12Zm2.53-.8,0,0a1.55,1.55,0,0,0-.15-1.05l4.34-2.72Zm-2.67.65L774.3,144.44a1.51,1.51,0,0,0-.65-.35,1.54,1.54,0,0,0-1,.12l-7.54-13.16,21.86-1A1.55,1.55,0,0,0,787.38,130.88Zm-90.56,6.8,13.7-3-5.38,4-8.32-.82A1.47,1.47,0,0,0,696.82,137.68Zm0,.59h0l7.86.78-9,6.65a1.54,1.54,0,0,0-.77-.48.92.92,0,0,0-.15,0l.49-5.75A1.55,1.55,0,0,0,696.81,138.26Zm8.4.83,1.93.19-10.34,6Zm.48-.35,5.71-4.21,5.41-1.17a1.5,1.5,0,0,0,.1.25l-9.17,5.33ZM717,133.81a1.54,1.54,0,0,0,2.76-.37l50.74,11.72L708.11,139Zm72.31-2.37.87,1.46-13.81,10.22Zm.22-.19,6.71-6.06,28-17.48-33.8,25ZM934.18,79.7a1.55,1.55,0,0,0,.62.51l-12.69,35L913.64,113,908,93.9Zm151,35.21a1.54,1.54,0,0,0,.26,1l-19.87,17.82-18.66-24.46a1.55,1.55,0,0,0,.45-.72Zm69.09,18.43a1.63,1.63,0,0,0,0,.61l-48.38,19.3-18.34-36.92a1.57,1.57,0,0,0,.57-.73Zm144.4,69.94a.78.78,0,0,0-.07.15L1261,197.53a1.54,1.54,0,0,0-.73-1.43l4.45-9.93Zm-199.58,3.1a1.63,1.63,0,0,0-.3,0l-1-25.48a1.56,1.56,0,0,0,1-.53l13.54,9.15-12.77,17.09A1.58,1.58,0,0,0,1099.1,206.39ZM1065.3,134l-30.72,27.55,11.13-51.82a1.59,1.59,0,0,0,.92-.19ZM1118,179.57l-11.67-6.8,6.41-5,5.68,11.43A1.54,1.54,0,0,0,1118,179.57Zm-.11.24a1.5,1.5,0,0,0-.14.31s0,0,0,.06l-18.53-1a1.57,1.57,0,0,0-.21-.69l7.1-5.58Zm-19.14-1.57a1.52,1.52,0,0,0-.73-.43,1.54,1.54,0,0,0-.44,0l-1.85-10.9,10,5.84Zm-10.86-17.34,6.06-2.41,1.33,7.84-7.5-4.37a1.45,1.45,0,0,0,.14-.31A1.54,1.54,0,0,0,1087.85,160.9Zm-.14-.36a1.56,1.56,0,0,0-1-.78,1.15,1.15,0,0,0-.2,0l.36-42.89,7,41.23Zm-.08,1.66,7.66,4.47,1.9,11.19a1.74,1.74,0,0,0-.31.12l-9.63-15.41A1.57,1.57,0,0,0,1087.63,162.19Zm33.15,18.54,54.16,2.78s0,.11,0,.16l-40.29,12.71-14.22-14.89a1.52,1.52,0,0,0,.35-.66A.81.81,0,0,0,1120.78,180.74Zm-1.19-1.8a1.55,1.55,0,0,0-.87.08L1113,167.49l41.73-32.82h0l-34.68,44.47A1.64,1.64,0,0,0,1119.59,178.94Zm34.88-44.55-41.65,32.75-6.72-13.52,48.35-19.29Zm-42,33-6.59,5.18-10.29-6-1.39-8.21,11.51-4.59ZM1094.18,158l-7-41.42.08,0,18.34,36.91Zm-7.8-41.38a1.73,1.73,0,0,0,.2,0l-.36,43.16a1.57,1.57,0,0,0-.67.2l-19.73-25.88,19.9-17.85A1.55,1.55,0,0,0,1086.37,116.58Zm-1.11,43.6a1.54,1.54,0,0,0-.46.76,1.45,1.45,0,0,0,0,.34l-51.24,5,.88-4.1,31.1-27.89ZM1034.06,162l-4.16,3.73a1.57,1.57,0,0,0-.43-.25l15-52.07Zm-3.64,5s0,0,0-.08l2.63-.26-.17.78Zm0-.4a1.58,1.58,0,0,0-.25-.58l3.75-3.36-.79,3.67Zm-4.39-4.95L997.71,113l.9-2.07,1.72-.1ZM914.2,171l-13.73-31.32,16.14-11.15a1.56,1.56,0,0,0,.82.53h.12l-2.63,42.49Zm-40.67-30.91a1.55,1.55,0,0,0,.19-.42,1.61,1.61,0,0,0,0-.61l2.49-.64-.86,3.07Zm12.36-32.72L897,132.74,876.69,138l8.51-30.58A1.55,1.55,0,0,0,885.9,107.37Zm30.52,20.89-16.08,11.11-2.83-6.46L916.33,128A1.6,1.6,0,0,0,916.42,128.26Zm0-1.5a1.49,1.49,0,0,0-.18.4,1.57,1.57,0,0,0,0,.61l-18.84,4.88-11.14-25.41a1.55,1.55,0,0,0,.42-.37Zm-40.11,11.33-2.67.69a1.54,1.54,0,0,0-.73-.84l1.06-2.8,10.59-26.7Zm.27.23L897.14,133l2.88,6.58-14.22,9.82-10.15-7.71Zm23.56,1.57,13.42,30.62-27.5-20.9ZM946,121.76l15.33,4s0,.07,0,.1l-41.51,1.47Zm48.88-10.35h0l-19.69,8.84,17.93-8.47Zm2.39.73a1.56,1.56,0,0,0,.61-.9,1.47,1.47,0,0,0,0-.29l.4,0-.74,1.69Zm1.15-1.51-.53,0a1.59,1.59,0,0,0-.24-.63l.61-.44a1.56,1.56,0,0,0,.44.39Zm-.3-1.21,0,.08-.61.43-.16-.17Zm-3.34,1.6-.08,0,.08,0S994.74,111,994.74,111Zm-2.81,1-27.75,13.11a1.62,1.62,0,0,0-.24-.29l6.9-8.36ZM963.68,124.6a1.5,1.5,0,0,0-.5-.23,1.55,1.55,0,0,0-1,.12L959,119l11.29-2.39Zm-1.77,0a1.54,1.54,0,0,0-.52.68l-14.55-3.77,11.82-2.51Zm2.32,1.9a1.5,1.5,0,0,0,.13-.29,1.54,1.54,0,0,0-.08-.87l30.63-13.76a1.52,1.52,0,0,0,.65.62l-10.75,27.07Zm34.52-16,.21-.49.11,0a1.53,1.53,0,0,0,.89-.08l.23.45Zm-.77-1.44-.86.4a1.61,1.61,0,0,0-.36-.16l.38-1.64.81.38s0,.08-.06.13A1.55,1.55,0,0,0,998,109.16Zm-3.23,1.53-1.22.58L971.25,116l10.4-12.6,13.19,7a1.42,1.42,0,0,0-.09.2A1.44,1.44,0,0,0,994.75,110.69Zm-49.68,10.84L919.25,127a1.53,1.53,0,0,0-.79-.88l3.81-10.49ZM918.18,126l0,0a1.56,1.56,0,0,0-.64,0l-3.74-12.54,8.2,2.12Zm-1,.1a1.57,1.57,0,0,0-.62.45l-29.75-19.9a1.63,1.63,0,0,0,.08-.17l26.49,6.86ZM873.3,140.4l.09.07,1.86,1.47-4.69,16.84h0l1.61-17.92A1.54,1.54,0,0,0,873.3,140.4Zm101.8,23.19a1.52,1.52,0,0,0-.68,0l-11-36.24a1.57,1.57,0,0,0,.63-.45l20.63,12.81-9.49,23.91Zm55.2,3.93s0-.1.06-.14l2.44.44-.23,1ZM1099,180.05a1.58,1.58,0,0,0,.16-.35s0,0,0-.08l18.53,1a1.54,1.54,0,0,0,.52,1.07l-5.65,7.57Zm36,16.67,40.12-12.66a1.52,1.52,0,0,0,.48.62l-19.37,32.39a1.63,1.63,0,0,0-.32-.14,1.55,1.55,0,0,0-1.31.31Zm21.48,20.47,19.37-32.39a1.65,1.65,0,0,0,.32.15,1.53,1.53,0,0,0,.88-.08l9.53,20.52-29.66,12.31A1.6,1.6,0,0,0,1156.44,217.18Zm38.49,3.63a1.55,1.55,0,0,0-.88.08L1187,205.63l31.56-13.1L1195.42,221A1.48,1.48,0,0,0,1194.94,220.81Zm24.28-28.57,4.7-2a1.25,1.25,0,0,0,.15.19l0,.07L1197.56,219Zm6.76-4.11a1.69,1.69,0,0,0-.34-.15,1.46,1.46,0,0,0-.26,0l-.21-3.06,9.73-12Zm-1-.15a1.57,1.57,0,0,0-1.22,1.18h0l-1.85-.23,2.89-3.56Zm-1.23,1.49a1.51,1.51,0,0,0,0,.45l-4,1.68,1.94-2.39Zm34.63,6.88a1.6,1.6,0,0,0-.35.59l-28.75-6.64a1.54,1.54,0,0,0-2.51-1.45,1.23,1.23,0,0,0-.13-.15,1.6,1.6,0,0,0-.47-.5l9.05-15.46a1.53,1.53,0,0,0,.34.16,1.55,1.55,0,0,0,1.3-.31Zm-37.11-7.2L1219,191.9l-32.24,13.38-9.53-20.51a1.57,1.57,0,0,0,.76-1h0Zm-176-79.56-16.1,55.77a1.59,1.59,0,0,0-.8.09l-27.62-54.67,43.55-2.39A1.55,1.55,0,0,0,1045.24,109.6Zm-74.55,6.5-11.92,2.52L936.39,80.08a1.6,1.6,0,0,0,.38-.37l44.57,23.5ZM935.12,80.36a1.55,1.55,0,0,0,1-.13l22.34,38.46L946,121.34l-23.55-6.1,12.67-34.9Zm-50.35,26.91-5.28,13.32,5.07-13.41A1.08,1.08,0,0,0,884.77,107.27ZM870.87,138.5a1.36,1.36,0,0,0-.13,1.32l-8.84,4.29-11.19-21Zm0,20.37,4.65-16.72,9.68,7.67-13.72,9.48A1.51,1.51,0,0,0,870.88,158.87Zm43,12.37.27.61a1.54,1.54,0,0,0-.31.27l-28-22.21Zm2.7,1.57-.17-.13a1.6,1.6,0,0,0-.23-.43l9.5-9.38,1.93,8.46Zm-.65-.83a1.52,1.52,0,0,0-.62-.32s-.08,0-.12,0l2.64-42.6H918l7.61,33.38Zm2.35-43a1.56,1.56,0,0,0,.69-.46l24.55,16.21-17.67,17.45Zm.88-.77a1.52,1.52,0,0,0,.15-.34,1.57,1.57,0,0,0,0-.27l41.94-1.49a1.55,1.55,0,0,0,.33.76l-17.81,17.59Zm42.68-1.07.06.06L950,148.56l-5.89-3.89Zm.39.21a1.35,1.35,0,0,0,.24.11,1.58,1.58,0,0,0,.68,0l11,36.24a1.55,1.55,0,0,0-.61.43l-23.27-15.37ZM985,139.89l.5.31L978.56,156Zm.15-.37,10.77-27.11.07,0a1.56,1.56,0,0,0,.76,0l.44,1.05-11.52,26.38Zm12.22-25.63,18.93,45L985.91,140Zm.32-.31,30.3,52.1a1.42,1.42,0,0,0-.28.26l-10.8-6.7Zm32.47,54.31,2.38,1.4-3.67,17.07h0l.14-17.88A1.54,1.54,0,0,0,1030.12,167.88Zm2.84,1.19.25-1.19,27.6,5-12,5.53Zm.33-1.55.19-.9,51.32-5a1.61,1.61,0,0,0,.07.17l-23.47,10.83Zm51.7-5.42a1.57,1.57,0,0,0,1,.72,1.6,1.6,0,0,0,.61,0l4,15-28.6-5.17Zm1.89.64a1.71,1.71,0,0,0,.2-.08l9.63,15.41a1.55,1.55,0,0,0-.58.81l-5.21-.94Zm9.19,16.51s0,.06,0,.1l-4.62.57-.42-1.58Zm0,.47a1.36,1.36,0,0,0,1.46,1.17l1,25.48h-.09l-6.94-26.09Zm16.66,9.63,5.64-7.55a1.46,1.46,0,0,0,1.79-.1l14.12,14.79-7.5,2.36Zm21.87,7.47,19.68,20.6-27.06-18.28ZM1157,218l29.69-12.32L1193.8,221a1.57,1.57,0,0,0-.76,1s0,0,0,.07l-36-3.58A1.51,1.51,0,0,0,1157,218Zm38.72,3.27,28.57-30.55a1.51,1.51,0,0,0,.76.46,1.57,1.57,0,0,0,.23,0l.89,18.79L1196,221.63A1.45,1.45,0,0,0,1195.74,221.32Zm29.95-30.08a1.59,1.59,0,0,0,.69-.34,1.56,1.56,0,0,0,2.83-.35l28.75,6.64a1.5,1.5,0,0,0,0,.61l-31.42,12.06Zm34.26,4.69-.1,0a1.55,1.55,0,0,0-1.3.31L1237,172.44a2.09,2.09,0,0,0,.17-.19L1264.4,186Zm-25.15-23.47-9.68,11.93-.74-10.51,10-2A1.49,1.49,0,0,0,1234.8,172.46Zm-10.05,12.4-3.27,4L1178,183.44a1.53,1.53,0,0,0,0-.19L1224,174ZM1175,183a.5.5,0,0,0,0,.08l-54.16-2.79a1.54,1.54,0,0,0-.47-1L1155,134.9a1.39,1.39,0,0,0,1.27.16l19.48,47A1.54,1.54,0,0,0,1175,183ZM1000.58,110.5l-.29-.56a1.55,1.55,0,0,0,.68-1,1.53,1.53,0,0,0,0-.23l38.34-.37Zm-2.47-2.7-.88-.41,6.64-28.74-4.32,28.43A1.55,1.55,0,0,0,998.11,107.8Zm5.9-30.87-7,30.35L983.59,101l20-24.28A1.76,1.76,0,0,0,1004,76.93Zm-7.1,30.72-.39,1.7A1.55,1.55,0,0,0,995,110l-13.1-6.91,1.45-1.75Zm-15.33-4.73L942.2,82.16l40.81,19Zm-68.33,9.95L887,106.07a1.54,1.54,0,0,0-.11-.78l20.75-11.23ZM886.75,105a1.56,1.56,0,0,0-.64-.52L898.25,71l1-2.76h0a1.55,1.55,0,0,0,.63,0l7.61,25.51Zm-.89-.63,0,0c-.06,0-.12,0-.18,0l5.71-15.1Zm-1.61,2.5-11.69,30.91h0a1.57,1.57,0,0,0-1.2.21l-26-32.27,38.59.32A1.54,1.54,0,0,0,884.25,106.87ZM871.1,138.22l0,0-20.73-15.77-9-16.79,3.5,0ZM834,92.75l3.73,7-7.58,4.07,3.08-11A1.5,1.5,0,0,0,834,92.75Zm3.92,7.35,2.8,5.25-11-.09.25-.9Zm-8.6,5.15h-.15a1.48,1.48,0,0,0-.1-.39l.43-.23Zm-1.9,1.69a1.57,1.57,0,0,0,1-.19l.34.44-13.53,48.18Zm1.29-.44,0,0,.19.14,0,.14Zm.24-.29a1.59,1.59,0,0,0,.21-.45,1.41,1.41,0,0,0,0-.18h.07l-.2.7Zm.7-.63,11.25.1,8.66,16.22L829.4,106.54Zm11.53-.23-2.9-5.44,1.33-.71,5,6.19Zm-3.1-5.8-3.53-6.61,4.79,5.94Zm-8.43,4.53-.77.41a1.55,1.55,0,0,0-.59-.48l4.3-10.39Zm32.39,40.36,8.81-4.28a1.57,1.57,0,0,0,1,.69H872l-1.61,17.91a1.51,1.51,0,0,0-.59.1Zm65.63,27.22,2.41,10.58a1.54,1.54,0,0,0-.61.38L917,173.1Zm101.55,14.77,3.64-16.93,15.53,9.11-18.34,8.46A1.57,1.57,0,0,0,1029.23,186.43Zm70.54,20.33,12.77-17.1,13.83,9.34-26.22,8.27A1.58,1.58,0,0,0,1099.77,206.75Zm191.25-79a1.38,1.38,0,0,0,.33,0l8.41,74.49a1.56,1.56,0,0,0-.93.64l-33.91-17.13,26-58.06ZM826.51,106.47a1.58,1.58,0,0,0,.58.39l-15.15,60.27a1.53,1.53,0,0,0-.88.14L790.61,133Zm2.72.68.08-.27,20.63,15.7,11.59,21.71L859,145.5Zm32.47,37.46,7.38,13.81-9.82-12.63Zm10.15,16a1.56,1.56,0,0,0-.17-1L885.47,150l28.17,22.32a1.89,1.89,0,0,0-.12.27Zm44.66,12.62,10.09,7.67L916.3,174a1.5,1.5,0,0,0,.2-.43A1.4,1.4,0,0,0,916.51,173.23ZM931,182.16a1.63,1.63,0,0,0-.54,0L928,171.61l9.87-1.33-6.69,12A1.74,1.74,0,0,0,931,182.16Zm-3-10.88-2-8.69,17.88-17.66,6,3.95-11.73,21Zm22.18-22.2,23.26,15.35a1.69,1.69,0,0,0-.15.34,1.47,1.47,0,0,0,0,.39l-34.68,4.68Zm25.41,14.71,10.22-23.4,30.77,19.1,2.93,7L976.3,165A1.53,1.53,0,0,0,975.53,163.78Zm41.61-3.92,10.33,6.41a1.55,1.55,0,0,0-.13.29s0,.1,0,.15l-7.42-.25Zm10.19,7.16a1.56,1.56,0,0,0,1.19,1.43,1.7,1.7,0,0,0,.24,0l-.14,17.88a1.28,1.28,0,0,0-.32,0l-8.25-19.6Zm2.85,20.38,18.58-8.57,9,5.27-27.53,3.41A1,1,0,0,0,1030.18,187.4Zm19-8.78,12.2-5.63,29.29,5.29.45,1.68L1058.42,184Zm42,1.7,7,26.15a1.54,1.54,0,0,0-.7.49l-38.57-22.63ZM1196.1,222l30.11-11.56,2.57,54.39a1.69,1.69,0,0,0-.57.22l-32.55-41.56a1.57,1.57,0,0,0,.46-.76A1.55,1.55,0,0,0,1196.1,222Zm33.3,42.85a1.55,1.55,0,0,0-.23,0l-2.58-54.55,31.53-12.11a1.52,1.52,0,0,0,.58.61l-29.2,66.1Zm71.91-62,46.48-50.44a1.64,1.64,0,0,0,.57.26,1.75,1.75,0,0,0,.53,0l7.1,36.06a1.55,1.55,0,0,0-1.11,1.14,1.48,1.48,0,0,0,0,.56l-53.28,12.89A1.57,1.57,0,0,0,1301.31,202.81Zm46.22-50.72-46.48,50.44a1.58,1.58,0,0,0-.57-.26,1.9,1.9,0,0,0-.33,0l-8.41-74.49a1.55,1.55,0,0,0,1-.75l54.5,23.6s0,.07,0,.11A1.56,1.56,0,0,0,1347.54,152.1Zm-57-24.51-26,58-27.19-13.73a1.39,1.39,0,0,0,.08-.17,1.59,1.59,0,0,0-.2-1.2l53.06-43.15A1.38,1.38,0,0,0,1290.57,127.59ZM1234.37,171a1.67,1.67,0,0,0,0,.5l-10,2-4.45-63.1,15.44,59.49A1.55,1.55,0,0,0,1234.37,171Zm-15.16-61.1a2,2,0,0,0,.26,0l4.49,63.69-46,9.31a1.49,1.49,0,0,0-1.93-1l-19.48-47a1.57,1.57,0,0,0,.8-1,1.62,1.62,0,0,0,0-.76l60.86-24A1.55,1.55,0,0,0,1219.21,109.93ZM1044.29,108l-43.31.42a1.56,1.56,0,0,0-1.2-1.38l4.58-30.1a1.54,1.54,0,0,0,1.23-.47l38.93,30.8a1.54,1.54,0,0,0-.22.49A1.5,1.5,0,0,0,1044.29,108Zm-40.93-31.52-20.1,24.36L937,79.3a1.23,1.23,0,0,0,.06-.13,1.46,1.46,0,0,0,0-.25l65.9-3.22A1.56,1.56,0,0,0,1003.36,76.52ZM934,79.41,907.86,93.58l-7.59-25.47a1.54,1.54,0,0,0,.81-.81l32.87,11.14v0A1.53,1.53,0,0,0,934,79.41Zm-50.13,26.21s0,.06,0,.09L845,105.39,839.93,99l7-3.78Zm-44.25-6.91-5.09-6.31a1.54,1.54,0,0,0,.34-.53l11.48,3.22Zm-6.86-6-4.65,11.24a1.13,1.13,0,0,0-.16-.07A1.58,1.58,0,0,0,826.1,105c0,.06,0,.11,0,.16l-7.75,0,14.11-12.73A1.75,1.75,0,0,0,832.8,92.7Zm-6.71,12.91a1.51,1.51,0,0,0,.16.5l-28.79,18,20.46-18.47ZM787,129.72l-22.08,1-13.65-23.83a1.6,1.6,0,0,0,.35-.32l35.54,22.6a1.53,1.53,0,0,0-.16.35A1.39,1.39,0,0,0,787,129.72Zm-73.71,3-8.44-.19,42.66-25Zm-.34.25-2,1.48-14.17,3.06a1.79,1.79,0,0,0-.08-.2l7.74-4.54Zm-16.43,4a1.52,1.52,0,0,0-.89-.6,1.55,1.55,0,0,0-1.75.86l-11.24-4.65a.45.45,0,0,0,.08-.34l21,.48Zm99-11.64-5.28,3.3,26.83-23h.28Zm-112.91,7.42,11.24,4.65a1.46,1.46,0,0,0-.07.16,1.58,1.58,0,0,0,1.18,1.89s.1,0,.15,0l-.49,5.75a1.52,1.52,0,0,0-1,.33l-11.26-12.38A1.63,1.63,0,0,0,682.56,132.75Zm13.35,13.31,11.61-6.74,62.22,6.16-73.67,1A1.48,1.48,0,0,0,695.91,146.06Zm78.74-1.21,15.72-11.64,20.44,34.2a1.62,1.62,0,0,0-.36.33L774.69,146.3a1.33,1.33,0,0,0,0-1.45Zm38.55,23.31L858.92,146l10.3,13.25a1.51,1.51,0,0,0-.45.75,1.55,1.55,0,0,0,0,.41l-55.51,7.92S813.22,168.2,813.21,168.16Zm100.22,4.75a1.57,1.57,0,0,0,2.79,1.25l13,8.71.07,0,0,.06-55.51-21.53Zm18.1,9.51,6.81-12.2,34.91-4.71,0,.09L932,183A1.57,1.57,0,0,0,931.52,182.41Zm44.78-17.08,43.3,1.43,8.32,19.77a1.56,1.56,0,0,0-.56.6l-51.11-21.55s0-.06,0-.1S976.29,165.38,976.29,165.34Zm54,22.54,28-3.47,39,22.9-67-19.18A1.67,1.67,0,0,0,1030.26,187.88Zm70,20.49,53.74,10a1.55,1.55,0,0,0,1.14,1.63l-8.26,51.56a1.57,1.57,0,0,0-.84.18L1099.82,209A1.56,1.56,0,0,0,1100.24,208.37ZM1148,272.09l45.68-48.47a1.57,1.57,0,0,0,1.78.07L1228,265.24a1.54,1.54,0,0,0-.46.76,2.19,2.19,0,0,0,0,.27l-79.2,6.47A1.52,1.52,0,0,0,1148,272.09Zm81.89-7.07,29.2-66.1.09,0a1.54,1.54,0,0,0,1.29-.29l36,38.73a1.53,1.53,0,0,0-.36.67,1.5,1.5,0,0,0,0,.76l-65.75,26.77A1.52,1.52,0,0,0,1229.85,265ZM1298,236.88a.65.65,0,0,0-.12,0l2.25-31.51a1.51,1.51,0,0,0,1.54-1.75L1355,190.72a1.48,1.48,0,0,0,.12.32l-56.37,46.25A1.54,1.54,0,0,0,1298,236.88Zm104.34-96.08-52.15,9.85a1.55,1.55,0,0,0-1.13-1.09h-.1l3.18-45a1.56,1.56,0,0,0,1.11-.5l49.3,35.89a1.56,1.56,0,0,0-.19.41A1.72,1.72,0,0,0,1402.35,140.8Zm-50.6-36.3h.1l-3.17,45a1.54,1.54,0,0,0-1.31.78l-54.5-23.6s0-.06,0-.1a1.53,1.53,0,0,0,0-.74l57.84-22.2A1.55,1.55,0,0,0,1351.76,104.5ZM1290,127.11,1237,170.26a1.5,1.5,0,0,0-.72-.42,1.63,1.63,0,0,0-.58,0l-15.57-60a1.53,1.53,0,0,0,.89-.89l68.83,17.13A1.58,1.58,0,0,0,1290,127.11Zm-72-18.32-60.86,24a1.55,1.55,0,0,0-1-.8h-.06l4.6-67.89a1.54,1.54,0,0,0,1-.45l56.5,43.9a1.58,1.58,0,0,0-.2.44A1.53,1.53,0,0,0,1218.05,108.79Zm-57.78-44.66h.06l-4.6,67.89a1.71,1.71,0,0,0-.37.06l-25.73-58.74a1.56,1.56,0,0,0,.75-1,1.52,1.52,0,0,0,0-.68l28.8-8.52A1.54,1.54,0,0,0,1160.27,64.13ZM1127.65,73l-40,40.83a1.54,1.54,0,0,0-.61-.31,1.68,1.68,0,0,0-.5,0l-14.94-68.81a1.57,1.57,0,0,0,.8-.61l54.95,27.4c0,.06-.06.11-.08.18A1.55,1.55,0,0,0,1127.65,73Zm-57.84-28.91a1.53,1.53,0,0,0,.59.51l-24.18,62.07,0,0a1.55,1.55,0,0,0-1.47.46l-38.93-30.8a1.55,1.55,0,0,0,.22-.49,1.53,1.53,0,0,0-.07-.85Zm-66.88,31.27L937,78.56a1.56,1.56,0,0,0-1-1.2l9.46-35.83A1.56,1.56,0,0,0,947,41l56.1,33.85a1.62,1.62,0,0,0-.13.28A1.42,1.42,0,0,0,1002.93,75.34ZM944.46,40.91a1.55,1.55,0,0,0,.74.55l-9.46,35.82a1.55,1.55,0,0,0-1.69.92L901.18,67.07v0a1.54,1.54,0,0,0-.12-1Zm-97.67,54L835,91.57a1.58,1.58,0,0,0,0-.64l62.06-23.08Zm-29,10.35h-.25l5.06-4.34Zm-28.15,23.48a1.53,1.53,0,0,0-.71-.41,1.57,1.57,0,0,0-1.6.58l-35.54-22.6a1.54,1.54,0,0,0,.16-.35,1.28,1.28,0,0,0,0-.16l64.6-.14Zm-85.41,3.77-21.46-.5a1.61,1.61,0,0,0,0-.28l65.68-25.15Z"/>
      </g>
    </g>
  </g>
</svg>
