<svg xmlns="http://www.w3.org/2000/svg" viewBox="0 0 1143 1708">
  <defs>
    <style>
      .cls-1 {
        fill: #eeeeef;
      }

      .cls-1, .cls-2 {
        opacity: 0.06;
      }

      .cls-2, .cls-3 {
        fill: #0088ac;
      }

      .cls-3 {
        opacity: 0.5;
      }

      .cls-4, .cls-5 {
        fill: #fff;
      }

      .cls-4 {
        opacity: 0.21;
      }

      .cls-5 {
        opacity: 0.14;
      }
    </style>
  </defs>
  <title>traxion-bg-roadmap</title>
  <g id="landing">
    <g>
      <rect class="cls-1" x="184.7" y="478.19" width="192.18" height="192.18" transform="translate(-323.84 366.76) rotate(-45)"/>
      <rect class="cls-1" x="779.37" y="479.16" width="192.18" height="192.18" transform="translate(-150.34 787.53) rotate(-45)"/>
      <rect class="cls-1" x="339.78" y="41.84" width="192.18" height="192.18" transform="translate(30.13 348.61) rotate(-45)"/>
      <rect class="cls-1" x="39.38" y="624.62" width="192.18" height="192.18" transform="translate(-469.94 306.88) rotate(-45)"/>
      <rect class="cls-2" x="486.28" y="185.71" width="192.18" height="192.18" transform="translate(-28.69 494.34) rotate(-45)"/>
      <rect class="cls-3" x="632.37" y="39.62" width="192.18" height="192.18" transform="translate(117.4 554.85) rotate(-45)"/>
      <rect class="cls-1" x="778.42" y="185.67" width="192.18" height="192.18" transform="translate(56.91 700.9) rotate(-45)"/>
      <rect class="cls-4" x="632.33" y="331.76" width="192.18" height="192.18" transform="translate(-89.19 640.39) rotate(-45)"/>
      <rect class="cls-3" x="329.56" y="625.71" width="192.18" height="192.18" transform="translate(-385.72 512.39) rotate(-45)"/>
      <rect class="cls-3" x="627.53" y="912.88" width="192.18" height="192.18" transform="translate(-501.5 807.2) rotate(-45)"/>
      <polyline class="cls-5" points="579.31 1017.38 443.42 1153.27 579.31 1289.17 715.21 1153.27 579.31 1017.38"/>
      <rect class="cls-1" x="769.01" y="1058.28" width="192.18" height="192.18" transform="translate(-562.88 949.83) rotate(-45)"/>
      <rect class="cls-3" x="911.12" y="913.97" width="192.18" height="192.18" transform="translate(-419.22 1008.05) rotate(-45)"/>
      <polyline class="cls-5" points="151.64 1435.83 15.74 1571.72 151.64 1707.62 287.53 1571.72 151.64 1435.83"/>
      <rect class="cls-1" x="341.33" y="1476.73" width="192.18" height="192.18" transform="translate(-984.03 769.97) rotate(-45)"/>
      <rect class="cls-1" x="483.45" y="1332.42" width="192.18" height="192.18" transform="translate(-840.37 828.2) rotate(-45)"/>
    </g>
  </g>
</svg>
