<svg xmlns="http://www.w3.org/2000/svg" viewBox="0 0 38.79 50">
  <defs>
    <style>
      .cls-1 {
        fill: #eeeeef;
      }

      .cls-2 {
        fill: #b9babc;
      }

      .cls-3 {
        fill: #ced0d1;
      }

      .cls-4 {
        fill: #59595b;
      }

      .cls-5 {
        fill: #00bdde;
      }

      .cls-6 {
        fill: #0088ac;
      }
    </style>
  </defs>
  <title>traxion-contract-2_1</title>
  <g id="Layer_2" data-name="Layer 2">
    <g id="Layer_1-2" data-name="Layer 1">
      <g>
        <path class="cls-1" d="M38.79,12.07,26.73,0H0V50H38.79Zm0,0"/>
        <path class="cls-2" d="M26.73,0V12.07H38.79Zm0,0"/>
        <path class="cls-3" d="M7.76,13.79h7.76a.86.86,0,1,0,0-1.73H7.76a.86.86,0,1,0,0,1.73Zm0,0"/>
        <path class="cls-3" d="M9.85,20.69H24.63c1.63,0,3-.38,3-.86s-1.33-.86-3-.86H9.85c-1.63,0-3,.38-3,.86s1.33.86,3,.86Zm0,0"/>
        <path class="cls-3" d="M26.73,19h-6a.86.86,0,1,0,0,1.72h6a.86.86,0,1,0,0-1.72Zm0,0"/>
        <path class="cls-3" d="M13.79,19h-6a.86.86,0,1,0,0,1.72h6a.86.86,0,1,0,0-1.72Zm0,0"/>
        <path class="cls-3" d="M31.65,19.22a.87.87,0,0,0-1.23,1.23.92.92,0,0,0,.62.25.86.86,0,0,0,.61-1.47Zm0,0"/>
        <path class="cls-3" d="M18.11,25.86h-6a.86.86,0,0,0,0,1.73h6a.86.86,0,0,0,0-1.73Zm0,0"/>
        <path class="cls-3" d="M13.79,25.86h-6a.86.86,0,0,0,0,1.73h6a.86.86,0,0,0,0-1.73Zm0,0"/>
        <path class="cls-4" d="M10.47,33.76"/>
        <path class="cls-5" d="M30.86,36.19a1.42,1.42,0,0,0-1.94.8,1.41,1.41,0,0,1-2.67,0,1.41,1.41,0,0,0-1.94-.8,1.59,1.59,0,0,1-.18.05v9.45l3.45-3.45L31,45.69V36.24a1.52,1.52,0,0,1-.18-.05Zm0,0"/>
        <circle class="cls-6" cx="27.59" cy="33.66" r="5.09"/>
      </g>
    </g>
  </g>
</svg>
