<svg xmlns="http://www.w3.org/2000/svg" viewBox="0 0 74.67 85.71">
  <defs>
    <style>
      .cls-1 {
        fill: #035c75;
      }

      .cls-2, .cls-4 {
        fill: #eeeeef;
      }

      .cls-3, .cls-5 {
        fill: #bababc;
      }

      .cls-3, .cls-4 {
        stroke: #bababc;
      }

      .cls-10, .cls-3, .cls-4, .cls-7, .cls-8, .cls-9 {
        stroke-miterlimit: 10;
      }

      .cls-6 {
        fill: #00bdde;
      }

      .cls-10, .cls-7, .cls-8, .cls-9 {
        fill: none;
        stroke: #e3e4e5;
      }

      .cls-8 {
        stroke-dasharray: 2.95 2.95;
      }

      .cls-10, .cls-9 {
        stroke-width: 0.92px;
      }

      .cls-10 {
        stroke-dasharray: 3.19 3.19;
      }
    </style>
  </defs>
  <title>traxion-wallet_2</title>
  <g id="Layer_2" data-name="Layer 2">
    <g id="icons">
      <g id="wallet_w_phone" data-name="wallet w/phone">
        <g id="phone">
          <rect class="cls-1" width="47.98" height="85.71" rx="7.82" ry="7.82"/>
          <rect class="cls-2" x="5.71" y="8.03" width="37.27" height="65.92"/>
          <circle class="cls-2" cx="23.99" cy="79.58" r="2.92"/>
          <rect class="cls-2" x="19.06" y="3.69" width="10.56" height="1.69" rx="0.85" ry="0.85"/>
        </g>
        <g id="wallet_w_money" data-name="wallet w/ money">
          <g id="money">
            <rect class="cls-3" x="29.44" y="13.91" width="42.12" height="22.86" transform="translate(-4.41 38.65) rotate(-40.27)"/>
            <path class="cls-4" d="M70.69,17.76,61.41,6.81a3.44,3.44,0,0,1-4.85-.34l-.12-.16L30.68,28.13l.14.15a3.44,3.44,0,0,1-.47,4.84l9.3,11a3.59,3.59,0,0,1,.33-.32,3.44,3.44,0,0,1,4.85.34L70.22,22.6A3.44,3.44,0,0,1,70.69,17.76Z"/>
            <circle class="cls-5" cx="50.76" cy="25.64" r="8.12" transform="translate(-4.54 38.89) rotate(-40.27)"/>
            <path class="cls-2" d="M49.09,21.31a5,5,0,0,0-3.37,2.79c.21.46,1.45,1.28,1.91,1.1a2.83,2.83,0,0,0,.67,1.94c.6.71,1.59.38,1.85.53a1.37,1.37,0,0,1,.33.28,1.51,1.51,0,0,1,.32,1.19l-.41,3.13a7.38,7.38,0,0,0,7-5.91l-3.13-.11a1.53,1.53,0,0,1-1.28-.7,1.45,1.45,0,0,1-.1-.2c-.07-.18.08-1.48,0-1.65.69-1.37-.59-2-1.64-2.28a3.56,3.56,0,0,1-2.1-.12"/>
          </g>
          <g id="wallet">
            <rect class="cls-6" x="25.09" y="28.26" width="45.79" height="31.66" rx="5" ry="5"/>
            <g>
              <line class="cls-7" x1="26.01" y1="55.09" x2="27.51" y2="55.09"/>
              <line class="cls-8" x1="30.46" y1="55.09" x2="64.4" y2="55.09"/>
              <line class="cls-7" x1="65.88" y1="55.09" x2="67.38" y2="55.09"/>
            </g>
            <g>
              <line class="cls-7" x1="26.01" y1="32.89" x2="27.51" y2="32.89"/>
              <line class="cls-8" x1="30.46" y1="32.89" x2="64.4" y2="32.89"/>
              <line class="cls-7" x1="65.88" y1="32.89" x2="67.38" y2="32.89"/>
            </g>
            <g>
              <line class="cls-9" x1="66.45" y1="34.64" x2="66.45" y2="36.01"/>
              <line class="cls-10" x1="66.45" y1="39.2" x2="66.45" y2="50.37"/>
              <line class="cls-9" x1="66.45" y1="51.97" x2="66.45" y2="53.34"/>
            </g>
            <rect class="cls-1" x="63.35" y="38.4" width="9.9" height="9.9" rx="3" ry="3"/>
            <circle class="cls-2" cx="66.45" cy="43.83" r="1.18"/>
          </g>
        </g>
      </g>
    </g>
  </g>
</svg>
