<svg xmlns="http://www.w3.org/2000/svg" viewBox="0 0 151.92 78.82">
  <defs>
    <style>
      .cls-1 {
        opacity: 0.4;
      }

      .cls-2 {
        fill: #00394e;
      }

      .cls-10, .cls-2, .cls-3, .cls-4, .cls-5, .cls-6, .cls-7 {
        fill-rule: evenodd;
      }

      .cls-3 {
        fill: #00445e;
      }

      .cls-4 {
        fill: #005372;
      }

      .cls-5 {
        fill: #006990;
      }

      .cls-11, .cls-6 {
        fill: #0082b3;
      }

      .cls-7 {
        fill: #fefefe;
      }

      .cls-8 {
        fill: none;
        stroke: #eeeeef;
        stroke-miterlimit: 10;
        stroke-width: 0.21px;
      }

      .cls-10, .cls-9 {
        fill: #00bdde;
      }

      .cls-12 {
        fill: #fff;
      }
    </style>
  </defs>
  <title>traxion-techz</title>
  <g id="Layer_2" data-name="Layer 2">
    <g id="Group_1" data-name="Group 1">
      <g id="right-side">
        <g id="Group_4" data-name="Group 4">
          <g>
            <g id="Rectangle_1_copy_5" data-name="Rectangle 1 copy 5" class="cls-1">
              <polygon class="cls-2" points="76.74 54.18 50.69 66.5 76.74 78.82 102.8 66.5 76.74 54.18"/>
            </g>
            <g id="Rectangle_1" data-name="Rectangle 1">
              <polygon class="cls-2" points="76.74 50.54 50.69 62.85 76.74 75.17 102.8 62.85 76.74 50.54"/>
            </g>
            <g id="Rectangle_1_copy" data-name="Rectangle 1 copy">
              <polygon class="cls-3" points="76.74 37.89 50.69 50.21 76.74 62.53 102.8 50.21 76.74 37.89"/>
            </g>
            <g id="Rectangle_1_copy_2" data-name="Rectangle 1 copy 2">
              <polygon class="cls-4" points="76.74 25.29 50.69 37.61 76.74 49.93 102.8 37.61 76.74 25.29"/>
            </g>
            <g id="Rectangle_1_copy_3" data-name="Rectangle 1 copy 3">
              <polygon class="cls-5" points="76.74 12.65 50.69 24.96 76.74 37.28 102.8 24.96 76.74 12.65"/>
            </g>
            <g id="Rectangle_1_copy_4" data-name="Rectangle 1 copy 4">
              <polygon class="cls-6" points="76.74 0 50.69 12.32 76.74 24.64 102.8 12.32 76.74 0"/>
            </g>
            <g id="LOCAL">
              <path class="cls-7" d="M65.1,65l-.34-.17v3l1.51.75v-.31l-1.16-.58Zm3.31,1.72a2.69,2.69,0,0,0-.72-.47A1.82,1.82,0,0,0,67,66q-.21,0-.27.27a5.29,5.29,0,0,0-.06,1,6.4,6.4,0,0,0,.06,1,1,1,0,0,0,.27.54,2.72,2.72,0,0,0,.72.47,1.8,1.8,0,0,0,.72.24q.21,0,.27-.27a5.29,5.29,0,0,0,.06-1,6.4,6.4,0,0,0-.06-1A1,1,0,0,0,68.41,66.75ZM68.35,69q0,.21-.17.21a1.53,1.53,0,0,1-.49-.18,2.14,2.14,0,0,1-.49-.3.66.66,0,0,1-.17-.38,6.06,6.06,0,0,1,0-.88,5.14,5.14,0,0,1,0-.83q0-.21.17-.21a1.55,1.55,0,0,1,.49.18,2.11,2.11,0,0,1,.49.3.66.66,0,0,1,.17.38,6.07,6.07,0,0,1,0,.88A5.15,5.15,0,0,1,68.35,69Zm1.54,1a.74.74,0,0,1-.2-.41,5.34,5.34,0,0,1,0-.85,4.43,4.43,0,0,1,0-.8q0-.21.2-.21a1.49,1.49,0,0,1,.52.19,4.93,4.93,0,0,1,.5.29v-.28l-.27-.18-.31-.17a1.58,1.58,0,0,0-.67-.22q-.21,0-.28.28a4.12,4.12,0,0,0-.07.94,5.26,5.26,0,0,0,.07,1,1.12,1.12,0,0,0,.28.56,2.47,2.47,0,0,0,.67.45l.31.14.28.1v-.29a3.64,3.64,0,0,1-.51-.22A2.13,2.13,0,0,1,69.89,70Zm2.28-1.48L71.22,71l.35.17.26-.68,1.11.55.26.94.36.18-.94-3.42Zm-.25,1.72L72.38,69h0l.45,1.69Zm2.46,2V69.63L74,69.46v3l1.51.75v-.31Z"/>
            </g>
            <g id="CURRENCIES">
              <path class="cls-7" d="M78.49,72.8q-.14,0-.19-.21a4.26,4.26,0,0,1,0-.76,5.07,5.07,0,0,1,0-.8.68.68,0,0,1,.19-.38,1.93,1.93,0,0,1,.49-.3,3.74,3.74,0,0,1,.47-.18v-.27l-.25.08-.3.12a2.21,2.21,0,0,0-.63.41A1,1,0,0,0,78,71a5,5,0,0,0-.07,1,4,4,0,0,0,.07.9q.07.26.27.27a1.48,1.48,0,0,0,.63-.19l.3-.15.26-.16v-.27a4,4,0,0,1-.48.26A1.36,1.36,0,0,1,78.49,72.8Zm3-2.16a3.37,3.37,0,0,1,0,.55.54.54,0,0,1-.15.29,1.52,1.52,0,0,1-.41.26,1,1,0,0,1-.41.13q-.12,0-.16-.15a2.63,2.63,0,0,1,0-.52V69.47l-.32.15V71.2A3.45,3.45,0,0,0,80,72a.27.27,0,0,0,.25.24A1.45,1.45,0,0,0,80.9,72a2.18,2.18,0,0,0,.62-.39.92.92,0,0,0,.25-.47,4.45,4.45,0,0,0,.06-.82V68.75l-.32.15ZM84.21,69a1.82,1.82,0,0,0,.07-.54,1.58,1.58,0,0,0,0-.44.25.25,0,0,0-.2-.19.82.82,0,0,0-.47.11l-1.07.5v2.81l.32-.15V70l.7-.33.07,0,.39.94.35-.16-.42-1A.9.9,0,0,0,84.21,69Zm-.75.41-.64.3V68.58l.66-.31a.69.69,0,0,1,.32-.09.14.14,0,0,1,.13.11,1.24,1.24,0,0,1,0,.31,1.46,1.46,0,0,1,0,.34.52.52,0,0,1-.14.24A1.14,1.14,0,0,1,83.45,69.39Zm3.14-1.53a1.82,1.82,0,0,0,.07-.54,1.58,1.58,0,0,0,0-.44.25.25,0,0,0-.2-.19.82.82,0,0,0-.47.11l-1.07.5v2.81L85.2,70V68.86l.7-.33.07,0,.39.94.35-.16-.42-1A.9.9,0,0,0,86.59,67.87Zm-.75.41-.64.3V67.46l.66-.31a.69.69,0,0,1,.32-.09.14.14,0,0,1,.13.11,1.24,1.24,0,0,1,0,.31,1.46,1.46,0,0,1,0,.34.52.52,0,0,1-.14.24A1.14,1.14,0,0,1,85.84,68.27Zm1.43.74,1.56-.73V68l-1.24.58v-1l1.07-.5v-.29l-1.07.5v-1l1.24-.58v-.29l-1.56.73Zm3.65-2.41h0L89.7,65.06l-.33.16V68l.31-.15V65.72h0l1.23,1.58.32-.15V64.34l-.32.15Zm1.48-.33q-.14,0-.19-.21a4.25,4.25,0,0,1,0-.76,5.06,5.06,0,0,1,0-.8.68.68,0,0,1,.19-.38,1.93,1.93,0,0,1,.49-.3,3.74,3.74,0,0,1,.47-.18v-.27l-.25.08-.3.12a2.21,2.21,0,0,0-.63.41,1,1,0,0,0-.27.53,5,5,0,0,0-.07,1,4,4,0,0,0,.07.9q.07.26.27.27a1.48,1.48,0,0,0,.63-.19l.3-.15.26-.16v-.27a4,4,0,0,1-.48.26A1.36,1.36,0,0,1,92.4,66.27Zm1.52-.38.32-.15V62.93l-.32.15Zm1-.48,1.56-.73v-.29L95.26,65V64l1.07-.5v-.29l-1.07.5v-1l1.24-.58v-.29l-1.56.73Zm3.66-3a.19.19,0,0,0-.17-.13,1,1,0,0,0-.33.07l-.56.19a.53.53,0,0,1-.2,0,.09.09,0,0,1-.08-.08,1.06,1.06,0,0,1,0-.25,1.18,1.18,0,0,1,0-.25.45.45,0,0,1,.09-.18.79.79,0,0,1,.19-.16,2.54,2.54,0,0,1,.33-.18,5.61,5.61,0,0,1,.67-.27V61l-.33.11-.41.17a2.4,2.4,0,0,0-.5.3,1,1,0,0,0-.28.37,1.28,1.28,0,0,0-.1.53,1.55,1.55,0,0,0,0,.36.23.23,0,0,0,.14.17.48.48,0,0,0,.31,0l.57-.19a.83.83,0,0,1,.25-.06.09.09,0,0,1,.09.08,1.37,1.37,0,0,1,0,.29,1.6,1.6,0,0,1,0,.28.4.4,0,0,1-.09.19.82.82,0,0,1-.18.16l-.31.16q-.31.15-.74.3v.28l.4-.14.44-.19a2.22,2.22,0,0,0,.47-.28.94.94,0,0,0,.27-.37,1.51,1.51,0,0,0,.09-.57A1.15,1.15,0,0,0,98.6,62.43Z"/>
            </g>
            <g id="CRYPTO">
              <path class="cls-7" d="M63.34,54.18a.71.71,0,0,1-.19-.39,5,5,0,0,1,0-.8,4.13,4.13,0,0,1,0-.75q0-.2.19-.2a1.44,1.44,0,0,1,.49.18,4.8,4.8,0,0,1,.47.28v-.27l-.25-.17-.3-.17a1.53,1.53,0,0,0-.63-.21q-.2,0-.27.26a3.84,3.84,0,0,0-.07.88,4.94,4.94,0,0,0,.07,1,1.08,1.08,0,0,0,.27.53,2.4,2.4,0,0,0,.64.43l.3.14.27.1v-.27a3.52,3.52,0,0,1-.49-.21A2.06,2.06,0,0,1,63.34,54.18Zm3.24.53a1.16,1.16,0,0,0,.07-.46,2.11,2.11,0,0,0,0-.48.93.93,0,0,0-.2-.38,1.5,1.5,0,0,0-.47-.34l-1.07-.55v2.79l.32.17V54.33l.71.36.07,0L66.34,56l.35.18-.43-1.38Q66.5,54.87,66.57,54.71Zm-.75-.33L65.18,54V52.94l.67.34a1.15,1.15,0,0,1,.32.22.52.52,0,0,1,.13.24,1.59,1.59,0,0,1,0,.34,1.05,1.05,0,0,1,0,.31.14.14,0,0,1-.14.1A.78.78,0,0,1,65.82,54.37Zm2.1,1h0l-.68-1.71-.34-.18.87,2.17v1.06l.33.17V55.85l.87-1.28-.34-.17Zm2.9.23a1.49,1.49,0,0,0-.47-.35l-1-.53v2.79l.32.17v-1l.7.36a.82.82,0,0,0,.48.13A.26.26,0,0,0,71,57a1.58,1.58,0,0,0,0-.44,2.23,2.23,0,0,0,0-.5A1,1,0,0,0,70.82,55.64Zm-.1,1.07a.14.14,0,0,1-.14.11.74.74,0,0,1-.33-.11l-.62-.31V55.22l.62.32a1.18,1.18,0,0,1,.33.23.53.53,0,0,1,.13.25,1.84,1.84,0,0,1,0,.37A1.34,1.34,0,0,1,70.72,56.72Zm.63-.61.75.39V59l.32.17V56.65l.75.39v-.3l-1.83-.94Zm4.12,2.27a1,1,0,0,0-.26-.51,2.61,2.61,0,0,0-.68-.45,1.75,1.75,0,0,0-.68-.24q-.2,0-.26.25a5,5,0,0,0-.05.91,6,6,0,0,0,.05,1,1,1,0,0,0,.26.51,2.64,2.64,0,0,0,.68.46,1.74,1.74,0,0,0,.68.24q.2,0,.26-.25a5,5,0,0,0,.05-.91A6,6,0,0,0,75.47,58.37Zm-.31,1.58q0,.2-.16.19a1.48,1.48,0,0,1-.46-.18,2.07,2.07,0,0,1-.46-.29.63.63,0,0,1-.16-.36,5.7,5.7,0,0,1,0-.83,4.8,4.8,0,0,1,0-.79q0-.2.16-.19a1.5,1.5,0,0,1,.46.18A2.05,2.05,0,0,1,75,58a.64.64,0,0,1,.16.36,5.7,5.7,0,0,1,0,.83A4.8,4.8,0,0,1,75.16,59.95Z"/>
            </g>
            <g id="CURRENCIES_copy" data-name="CURRENCIES copy">
              <path class="cls-7" d="M78.51,60.15q-.14,0-.18-.2a4.2,4.2,0,0,1,0-.76,5,5,0,0,1,0-.8.68.68,0,0,1,.18-.38,1.94,1.94,0,0,1,.49-.3,3.75,3.75,0,0,1,.47-.19v-.27l-.25.08-.29.12a2.22,2.22,0,0,0-.63.41,1,1,0,0,0-.27.53,4.91,4.91,0,0,0-.07.95,3.93,3.93,0,0,0,.07.89q.07.26.26.27a1.48,1.48,0,0,0,.63-.19l.29-.15.26-.16v-.27A4,4,0,0,1,79,60,1.36,1.36,0,0,1,78.51,60.15Zm3-2.17a3.35,3.35,0,0,1,0,.55.54.54,0,0,1-.15.29,1.53,1.53,0,0,1-.41.26,1,1,0,0,1-.41.13q-.12,0-.15-.15a2.59,2.59,0,0,1,0-.52V56.84L80,57v1.57a3.41,3.41,0,0,0,.06.76.27.27,0,0,0,.25.23,1.45,1.45,0,0,0,.61-.19,2.19,2.19,0,0,0,.61-.4.92.92,0,0,0,.24-.47,4.42,4.42,0,0,0,.06-.82V56.12l-.32.15Zm2.68-1.65a1.81,1.81,0,0,0,.07-.54,1.56,1.56,0,0,0,0-.43.25.25,0,0,0-.2-.18.82.82,0,0,0-.46.12l-1.06.51v2.78l.32-.15V57.32l.7-.33.07,0,.38.92.34-.16-.42-1A.9.9,0,0,0,84.18,56.33Zm-.75.41-.63.3v-1.1l.66-.31a.69.69,0,0,1,.31-.09.14.14,0,0,1,.13.11,1.22,1.22,0,0,1,0,.31,1.45,1.45,0,0,1,0,.34.52.52,0,0,1-.14.24A1.15,1.15,0,0,1,83.43,56.74Zm3.11-1.54a1.81,1.81,0,0,0,.07-.54,1.56,1.56,0,0,0,0-.43.25.25,0,0,0-.2-.18.82.82,0,0,0-.46.12l-1.06.51v2.78l.32-.15V56.19l.7-.33.07,0,.38.92.34-.16-.42-1A.9.9,0,0,0,86.54,55.19Zm-.75.41-.63.3V54.8l.66-.31a.69.69,0,0,1,.31-.09.14.14,0,0,1,.13.11,1.22,1.22,0,0,1,0,.31,1.45,1.45,0,0,1,0,.34.52.52,0,0,1-.14.24A1.15,1.15,0,0,1,85.8,55.6Zm1.41.71,1.55-.74v-.29l-1.23.59v-1l1.07-.51v-.29l-1.07.51v-.95l1.23-.59V52.8l-1.55.74Zm3.62-2.42h0l-1.2-1.52-.33.16v2.78l.31-.15V53h0l1.22,1.55.31-.15V51.66l-.31.15Zm1.47-.34q-.14,0-.18-.2a4.2,4.2,0,0,1,0-.76,5,5,0,0,1,0-.8.68.68,0,0,1,.18-.38,1.94,1.94,0,0,1,.49-.3,3.74,3.74,0,0,1,.47-.19v-.27l-.25.08-.29.12a2.22,2.22,0,0,0-.63.41,1,1,0,0,0-.27.53,4.91,4.91,0,0,0-.07.95,3.93,3.93,0,0,0,.07.89q.07.26.26.27a1.48,1.48,0,0,0,.63-.19l.29-.15.26-.16v-.27a4,4,0,0,1-.48.27A1.36,1.36,0,0,1,92.3,53.56Zm1.5-.39.32-.15V50.23l-.32.15Zm1-.48,1.55-.74v-.29l-1.23.59v-1l1.07-.51v-.29L95.14,51V50l1.23-.59v-.29l-1.55.74Zm3.63-3a.19.19,0,0,0-.17-.13,1,1,0,0,0-.33.07l-.55.19a.53.53,0,0,1-.2,0,.09.09,0,0,1-.08-.08,1,1,0,0,1,0-.25,1.17,1.17,0,0,1,0-.25.45.45,0,0,1,.09-.18.79.79,0,0,1,.18-.16,2.54,2.54,0,0,1,.32-.18,5.61,5.61,0,0,1,.66-.27v-.27l-.33.11-.41.18a2.41,2.41,0,0,0-.49.3,1,1,0,0,0-.28.37,1.28,1.28,0,0,0-.1.52,1.52,1.52,0,0,0,0,.36.22.22,0,0,0,.13.17.47.47,0,0,0,.31,0l.57-.2a.83.83,0,0,1,.25-.06.09.09,0,0,1,.09.08,1.35,1.35,0,0,1,0,.29,1.59,1.59,0,0,1,0,.28.4.4,0,0,1-.09.19.82.82,0,0,1-.18.16l-.3.16q-.31.15-.73.31v.27l.39-.15.43-.19a2.23,2.23,0,0,0,.47-.29.94.94,0,0,0,.27-.37,1.5,1.5,0,0,0,.09-.57A1.13,1.13,0,0,0,98.45,49.7Z"/>
            </g>
            <g id="HYPERLEDGER">
              <path class="cls-7" d="M55.83,37.49,54.77,37V35.91l-.28-.13v2.44l.28.13v-1.1l1.07.51v1.1l.28.13V36.55l-.28-.13Zm1.53.84h0l-.59-1.47-.3-.14.76,1.87v.93l.29.14v-.93l.76-1.15L58,37.43Zm2.53.11a1.24,1.24,0,0,0-.41-.29l-.9-.43v2.44l.28.13v-.9l.61.29a.7.7,0,0,0,.42.1.24.24,0,0,0,.18-.17,1.4,1.4,0,0,0,0-.39,1.94,1.94,0,0,0,0-.44A.81.81,0,0,0,59.9,38.45Zm-.09.94a.13.13,0,0,1-.12.1.62.62,0,0,1-.29-.08l-.54-.26v-1l.54.26a1,1,0,0,1,.29.19.44.44,0,0,1,.12.21,1.6,1.6,0,0,1,0,.32A1.19,1.19,0,0,1,59.81,39.39Zm.77,1.73,1.36.65v-.25L60.86,41v-.85l.94.45v-.25l-.94-.45v-.83l1.08.52v-.25l-1.36-.65Zm3.33.32A1,1,0,0,0,64,41a1.83,1.83,0,0,0,0-.42.78.78,0,0,0-.18-.33,1.24,1.24,0,0,0-.41-.29l-.94-.45V42l.28.13v-1l.62.29.06,0,.34,1.13.3.14-.37-1.2Q63.85,41.58,63.91,41.44Zm-.66-.27-.56-.27v-1l.58.28a1,1,0,0,1,.28.18.43.43,0,0,1,.11.2,1.38,1.38,0,0,1,0,.3.93.93,0,0,1,0,.27.13.13,0,0,1-.12.09A.66.66,0,0,1,63.25,41.17Zm1.53-.49-.28-.13V43l1.24.59v-.26l-1-.46Zm1.35,3.08,1.36.65v-.25l-1.08-.52v-.85l.94.45V43l-.94-.45v-.83l1.08.52V42l-1.36-.65Zm3.13-.86a2.38,2.38,0,0,0-.62-.38L68,42.2v2.44l.68.32a1.65,1.65,0,0,0,.62.2q.18,0,.23-.22a4,4,0,0,0,0-.78,4.88,4.88,0,0,0,0-.83A.8.8,0,0,0,69.26,42.9Zm0,1.8q0,.17-.16.16a1.64,1.64,0,0,1-.45-.17l-.36-.17V42.58l.36.17a2.15,2.15,0,0,1,.45.26.52.52,0,0,1,.16.31,4.5,4.5,0,0,1,0,.7A3.79,3.79,0,0,1,69.22,44.7Zm1.62.24.46.22V46l-.2-.07-.2-.09a1.42,1.42,0,0,1-.41-.27.67.67,0,0,1-.16-.35,4.1,4.1,0,0,1,0-.68,2.65,2.65,0,0,1,.05-.67q.05-.17.19-.16a2,2,0,0,1,.5.19l.25.14.28.17V44l-.31-.2-.36-.19a1.41,1.41,0,0,0-.57-.18q-.19,0-.26.23a2.85,2.85,0,0,0-.07.76,3.86,3.86,0,0,0,.07.84.94.94,0,0,0,.25.47,2.16,2.16,0,0,0,.57.36l.34.14.34.11V45l-.74-.35Zm1.3,1.68,1.36.65V47l-1.08-.52v-.85l.94.45v-.25l-.94-.45v-.83l1.08.52v-.25l-1.36-.65Zm3.06.44q.2,0,.27-.12a1,1,0,0,0,.06-.41,1.84,1.84,0,0,0,0-.42.78.78,0,0,0-.18-.33,1.24,1.24,0,0,0-.41-.29L74,45.06V47.5l.28.13v-1l.62.29.06,0,.34,1.13.3.14Zm-.39-.38-.56-.27v-1l.58.28a1,1,0,0,1,.28.18.43.43,0,0,1,.11.2,1.38,1.38,0,0,1,0,.3.93.93,0,0,1,0,.27.13.13,0,0,1-.12.09A.66.66,0,0,1,74.82,46.68Z"/>
            </g>
            <g id="FABRIC">
              <path class="cls-7" d="M78,48.26l.28-.14v-1l.91-.44v-.25l-.91.44v-.88l1-.49v-.25l-1.3.63Zm2.11-3.45-.77,2.8.29-.14.21-.77.92-.44.21.56.29-.14-.77-2.06Zm-.21,1.62L80.24,45h0l.37,1Zm2.9-1.72h0a.85.85,0,0,0,.29-.32,1,1,0,0,0,.09-.43q0-.3-.14-.38t-.46.07l-.94.45V46.5l.93-.45a1.11,1.11,0,0,0,.5-.41,1,1,0,0,0,.14-.53.58.58,0,0,0-.09-.36Q83,44.64,82.76,44.7Zm-.88-.52.58-.28a.64.64,0,0,1,.24-.08.12.12,0,0,1,.12.07.57.57,0,0,1,0,.23.63.63,0,0,1-.1.36.73.73,0,0,1-.3.24l-.58.28Zm.91,1.4a.75.75,0,0,1-.32.25l-.59.29v-.86l.59-.29q.23-.11.32-.06t.09.29A.7.7,0,0,1,82.79,45.58Zm2.38-2.07a1.58,1.58,0,0,0,.06-.47,1.35,1.35,0,0,0,0-.38.22.22,0,0,0-.18-.16.73.73,0,0,0-.41.1l-.93.45V45.5l.28-.14v-1l.61-.3.06,0,.34.8.3-.15-.37-.84A.8.8,0,0,0,85.18,43.51Zm-.66.36-.56.27v-1l.58-.28a.61.61,0,0,1,.28-.08.12.12,0,0,1,.11.09,1.06,1.06,0,0,1,0,.27,1.26,1.26,0,0,1,0,.3.46.46,0,0,1-.12.21A1,1,0,0,1,84.52,43.88Zm1.25.61.28-.14V41.92l-.28.14Zm1.73-1.06a1.21,1.21,0,0,1-.43.15q-.12,0-.16-.18a3.64,3.64,0,0,1,0-.66,4.37,4.37,0,0,1,0-.7.6.6,0,0,1,.16-.33,1.72,1.72,0,0,1,.43-.27,3.34,3.34,0,0,1,.41-.17V41l-.22.07-.26.11a2,2,0,0,0-.55.36.92.92,0,0,0-.23.46,4.27,4.27,0,0,0-.06.83,3.41,3.41,0,0,0,.06.77q.06.22.23.23a1.32,1.32,0,0,0,.55-.17l.26-.14.23-.14v-.24A3.55,3.55,0,0,1,87.5,43.43Z"/>
            </g>
            <g id="SMART">
              <path class="cls-7" d="M65.78,29.32a1.77,1.77,0,0,0-.31-.23l-.52-.32a.93.93,0,0,1-.19-.14.3.3,0,0,1-.08-.15,1.24,1.24,0,0,1,0-.25.82.82,0,0,1,0-.22.12.12,0,0,1,.09-.09.31.31,0,0,1,.17,0l.31.13a6.36,6.36,0,0,1,.63.35v-.25l-.31-.2-.39-.21a1.69,1.69,0,0,0-.46-.17.27.27,0,0,0-.27.09.67.67,0,0,0-.09.41,1.84,1.84,0,0,0,0,.36.7.7,0,0,0,.13.28,1,1,0,0,0,.29.25l.53.33a1.42,1.42,0,0,1,.24.17.31.31,0,0,1,.09.16,1.56,1.56,0,0,1,0,.29,1.17,1.17,0,0,1,0,.24.11.11,0,0,1-.09.1.34.34,0,0,1-.17,0l-.29-.12q-.29-.14-.69-.38V30l.37.22.41.21a1.56,1.56,0,0,0,.44.16.24.24,0,0,0,.25-.1A.83.83,0,0,0,66,30a1.51,1.51,0,0,0,0-.45A.67.67,0,0,0,65.78,29.32Zm1.94,1.82h0L67,28.66l-.43-.21v2.61l.29.14V29.08h0l.74,2.48.26.13.75-1.75h0v2.11l.3.15V29.6l-.42-.21Zm2.42-.92-.83,2.2.31.15.23-.6,1,.48.23.83.31.15-.83-3Zm-.22,1.52.41-1.09h0l.4,1.49Zm3.48,1.33a1.1,1.1,0,0,0,.07-.44,2,2,0,0,0,0-.45.84.84,0,0,0-.19-.35,1.36,1.36,0,0,0-.44-.31l-1-.49v2.61l.3.15v-1l.66.32.06,0,.36,1.22.33.16-.4-1.29Q73.33,33.22,73.4,33.07Zm-.71-.3-.6-.29v-1l.62.3a1,1,0,0,1,.3.2.47.47,0,0,1,.12.22,1.48,1.48,0,0,1,0,.32,1,1,0,0,1,0,.29.13.13,0,0,1-.13.1A.72.72,0,0,1,72.7,32.77ZM73.79,32v.28l.71.35V35l.3.15V32.77l.71.35v-.28Z"/>
            </g>
            <g id="CONTRACTS">
              <path class="cls-7" d="M78.46,34.8q-.13,0-.17-.19a3.9,3.9,0,0,1,0-.71,4.67,4.67,0,0,1,0-.75.64.64,0,0,1,.17-.36,1.85,1.85,0,0,1,.46-.29,3.58,3.58,0,0,1,.44-.18v-.25l-.24.08-.28.12a2.12,2.12,0,0,0-.59.39,1,1,0,0,0-.25.49,4.58,4.58,0,0,0-.06.89,3.66,3.66,0,0,0,.06.83q.06.24.25.25a1.42,1.42,0,0,0,.6-.18l.28-.15.25-.16v-.25a3.81,3.81,0,0,1-.46.25A1.3,1.3,0,0,1,78.46,34.8Zm2.91-3.63a1.58,1.58,0,0,0-.64.2,2.36,2.36,0,0,0-.64.41.88.88,0,0,0-.24.47,5.61,5.61,0,0,0-.05.9,4.67,4.67,0,0,0,.05.85q.05.23.24.24a1.59,1.59,0,0,0,.64-.21,2.33,2.33,0,0,0,.64-.41.88.88,0,0,0,.24-.47,5.61,5.61,0,0,0,.05-.9,4.67,4.67,0,0,0-.05-.85Q81.56,31.18,81.37,31.17Zm-.05,2a.57.57,0,0,1-.15.33,1.83,1.83,0,0,1-.43.26,1.36,1.36,0,0,1-.43.16q-.12,0-.15-.18a4.53,4.53,0,0,1,0-.74,5.31,5.31,0,0,1,0-.77.57.57,0,0,1,.15-.33,1.86,1.86,0,0,1,.43-.26,1.34,1.34,0,0,1,.43-.15q.11,0,.15.19a4.54,4.54,0,0,1,0,.74A5.33,5.33,0,0,1,81.32,33.18Zm2.38-1.24h0l-1.13-1.42-.31.15v2.61l.29-.14v-2h0l1.15,1.45.3-.14V29.84l-.3.14Zm.71-2,.71-.34v2.33l.3-.15V29.44l.71-.34v-.28l-1.71.82Zm3.74-.82a1.69,1.69,0,0,0,.07-.5,1.45,1.45,0,0,0,0-.4A.23.23,0,0,0,88,28a.79.79,0,0,0-.44.11l-1,.48v2.61l.3-.15V30l.66-.32.06,0,.36.87.33-.16-.4-.9A.85.85,0,0,0,88.15,29.1Zm-.71.39-.6.29v-1l.62-.3a.66.66,0,0,1,.3-.09.13.13,0,0,1,.12.1,1.13,1.13,0,0,1,0,.29,1.35,1.35,0,0,1,0,.32.49.49,0,0,1-.13.22A1.09,1.09,0,0,1,87.44,29.49Zm1.94-2.23-.83,3,.31-.15.23-.82,1-.47.23.6.31-.15-.83-2.21ZM89.16,29l.41-1.49h0l.4,1.1Zm2.32-.43q-.13,0-.17-.19a3.91,3.91,0,0,1,0-.71,4.68,4.68,0,0,1,0-.75.64.64,0,0,1,.17-.36,1.85,1.85,0,0,1,.46-.29,3.59,3.59,0,0,1,.44-.18v-.25l-.24.08-.28.12a2.12,2.12,0,0,0-.59.39,1,1,0,0,0-.25.49,4.58,4.58,0,0,0-.06.89,3.66,3.66,0,0,0,.06.83q.06.24.25.25a1.42,1.42,0,0,0,.6-.18l.28-.15.25-.16v-.25a3.81,3.81,0,0,1-.46.25A1.3,1.3,0,0,1,91.48,28.56ZM92.66,26l.71-.34V28l.3-.15V25.48l.71-.34v-.28l-1.71.82Zm3.6-.56a.18.18,0,0,0-.16-.12,1,1,0,0,0-.31.07l-.52.18a.51.51,0,0,1-.19,0A.09.09,0,0,1,95,25.5a1,1,0,0,1,0-.23A1.09,1.09,0,0,1,95,25a.42.42,0,0,1,.09-.17.76.76,0,0,1,.17-.16l.31-.17a5.39,5.39,0,0,1,.63-.26V24l-.31.1-.39.17a2.3,2.3,0,0,0-.46.28,1,1,0,0,0-.27.35,1.19,1.19,0,0,0-.09.49,1.42,1.42,0,0,0,0,.33.21.21,0,0,0,.13.16.45.45,0,0,0,.29,0l.53-.19a.8.8,0,0,1,.24-.06.09.09,0,0,1,.09.07A1.25,1.25,0,0,1,96,26a1.48,1.48,0,0,1,0,.26.37.37,0,0,1-.09.18.79.79,0,0,1-.17.15l-.29.16q-.29.14-.69.29v.26l.37-.14.41-.18a2.13,2.13,0,0,0,.44-.27.89.89,0,0,0,.25-.35,1.4,1.4,0,0,0,.09-.53A1,1,0,0,0,96.26,25.4Z"/>
            </g>
            <g id="KYC">
              <path class="cls-7" d="M71.13,17l-.39-.22-.9.86-.47-.27V16l-.36-.2v3.11l.36.2V17.71l.47.27.89,1.92.41.23-1-2.17Zm1.33,2.27,0,0-.76-1.95-.38-.22,1,2.47v1.18l.37.21V19.78l1-1.38-.38-.21ZM75,22a2.48,2.48,0,0,1-.55-.39.84.84,0,0,1-.21-.44,5.65,5.65,0,0,1,0-.9,4.57,4.57,0,0,1,0-.84q0-.22.21-.21a1.69,1.69,0,0,1,.55.23,5.72,5.72,0,0,1,.53.34v-.3l-.28-.2-.33-.21a1.79,1.79,0,0,0-.71-.28q-.22,0-.3.28a4.23,4.23,0,0,0-.08,1,5.59,5.59,0,0,0,.08,1.07,1.28,1.28,0,0,0,.3.61,2.88,2.88,0,0,0,.71.52l.33.17.3.12v-.3A4.18,4.18,0,0,1,75,22Z"/>
            </g>
            <g id="AML">
              <path class="cls-7" d="M78.94,19l-1,3.58.37-.17.27-1,1.18-.56.28.72.38-.18-1-2.64Zm-.27,2.07.49-1.77h0l.48,1.31Zm3.66-1.17h0l-.88-2.09-.52.25V21.2l.34-.16V18.52h0l.89,2.1.31-.15.89-2.94h0V20l.35-.17V16.75l-.51.24ZM84.87,19V16.21l-.36.17v3.11l1.59-.76v-.33Z"/>
            </g>
            <g id="Shape_9" data-name="Shape 9">
              <rect class="cls-8" x="38.85" y="12.24" width="0.25" height="50.69"/>
            </g>
            <g id="Shape_10" data-name="Shape 10">
              <rect class="cls-8" x="38.85" y="11.99" width="8.04" height="0.25"/>
            </g>
            <g id="Shape_10_copy" data-name="Shape 10 copy">
              <rect class="cls-8" x="38.85" y="62.88" width="8.04" height="0.25"/>
            </g>
            <g>
              <path class="cls-9" d="M.66,35.48h.6a.38.38,0,0,1,.28.09.37.37,0,0,1,.09.27.42.42,0,0,1-.05.23.27.27,0,0,1-.17.11h0a.28.28,0,0,1,.18.11.44.44,0,0,1,.05.24.42.42,0,0,1-.09.29.39.39,0,0,1-.3.1H.66Zm.66.56a.2.2,0,0,0,0-.14.34.34,0,0,0,0-.12.09.09,0,0,0-.05-.05l-.12,0H.93v.37h.24A.22.22,0,0,0,1.32,36Zm0,.64a.1.1,0,0,0,.06-.06.45.45,0,0,0,0-.24.1.1,0,0,0-.06-.06l-.12,0H.93v.39h.25Z"/>
              <path class="cls-9" d="M2.7,36.93l-.09-.32H2.13L2,36.93H1.78l.41-1.45h.37L3,36.93Zm-.32-1.2h0l-.17.64h.35Z"/>
              <path class="cls-9" d="M3.92,36.93,3.42,36h0v.92H3.15V35.48h.27l.48.87h0v-.87h.26v1.45Z"/>
              <path class="cls-9" d="M5.23,36.93l-.35-.62H4.74v.62H4.48V35.48h.27v.6h.13l.36-.6h.29l-.43.69.44.76Z"/>
            </g>
            <g id="Forma_1" data-name="Forma 1">
              <path class="cls-10" d="M5.23,31.43a.14.14,0,0,0,.14-.14v-.15A.14.14,0,0,0,5.48,31v-.55h.43A.16.16,0,0,0,6,30.17L4,28.9a.08.08,0,1,0-.09.14l1.94,1.25H5.42L3.21,28.87a.23.23,0,0,0-.25,0L.75,30.29H.3L3.09,28.5l.4.25a.08.08,0,1,0,.09-.14l-.4-.25a.17.17,0,0,0-.18,0L.17,30.17a.16.16,0,0,0,.09.29H.69V31a.14.14,0,0,0,.11.14v.15a.14.14,0,0,0,.14.14H1v1a.08.08,0,0,0,.17,0V31.35A.08.08,0,0,0,1,31.26H1v-.12h.6v.12H1.5a.08.08,0,0,0-.08.08v1.87a.08.08,0,0,0,.08.08h.07v.13H1V33.3H1a.08.08,0,0,0,.08-.08V33A.08.08,0,0,0,1,33v.13h0a.14.14,0,0,0-.14.14v.15a.14.14,0,0,0-.11.14v.17H.39a.17.17,0,0,0-.17.17v.18a.17.17,0,0,0,.17.17h5.4A.17.17,0,0,0,6,34.08V33.9a.17.17,0,0,0-.17-.17h-.3v-.17a.14.14,0,0,0-.11-.14v-.15a.14.14,0,0,0-.14-.14h0v-1.7ZM3.05,29a.06.06,0,0,1,.06,0l2,1.28h-4ZM.86,30.46H5.31v.21H.86Zm2.7,3v-.15a.14.14,0,0,0-.14-.14h0v-1.7h0a.14.14,0,0,0,.14-.14v-.15A.14.14,0,0,0,3.67,31v-.17h.65V31a.14.14,0,0,0,.11.14v.15a.14.14,0,0,0,.14.14h0v1.7h0a.14.14,0,0,0-.14.14v.15a.14.14,0,0,0-.11.14v.17H3.67v-.17A.14.14,0,0,0,3.56,33.42Zm-1.82,0v-.15a.14.14,0,0,0-.14-.14h0v-1.7h0a.14.14,0,0,0,.14-.14v-.15A.14.14,0,0,0,1.85,31v-.17H2.5V31a.14.14,0,0,0,.11.14v.15a.14.14,0,0,0,.14.14h0v1.7h0a.14.14,0,0,0-.14.14v.15a.14.14,0,0,0-.11.14v.17H1.85v-.17A.14.14,0,0,0,1.74,33.42Zm1.58-.12h.07v.13h-.6V33.3h.07a.08.08,0,0,0,.08-.08V31.35a.08.08,0,0,0-.08-.08H2.79v-.12h.6v.12H3.32a.08.08,0,0,0-.08.08v1.87A.08.08,0,0,0,3.32,33.3ZM2.67,31v-.14H3.5V31H2.67Zm0,2.62H3.5v.14H2.67ZM.86,31v-.14h.82V31Zm0,2.62h.82v.14H.86Zm4.93.31v.18H.39V33.9Zm-.5-.3h0v.14H4.49V33.6h.8Zm-.62-2.34H4.6v-.12h.6v.12H5.13a.08.08,0,0,0-.08.08v1.87a.08.08,0,0,0,.08.08H5.2v.13H4.6V33.3h.07a.08.08,0,0,0,.08-.08V31.35A.08.08,0,0,0,4.67,31.26ZM4.49,31v-.14h.82V31H4.49ZM3.12,29.63v-.26c.09,0,.13,0,.16,0s.06,0,.06-.07-.13-.09-.21-.09v0s0,0,0,0a0,0,0,0,0,0,0v0a.24.24,0,0,0-.25.24c0,.17.13.21.25.26V30c-.13,0-.17-.1-.21-.1s-.06,0-.06.07.11.15.27.15v0a0,0,0,0,0,0,0s0,0,0,0v0a.25.25,0,0,0,.24-.27C3.36,29.73,3.24,29.67,3.12,29.63Zm-.07,0c-.07,0-.13-.05-.13-.13s.05-.1.13-.11Zm.06.44v-.27a.15.15,0,0,1,.11.15A.12.12,0,0,1,3.11,30Z"/>
            </g>
            <g>
              <path class="cls-9" d="M1.59,47.06H1.43A.71.71,0,0,1,1.08,47a.32.32,0,0,1-.15-.22,2.93,2.93,0,0,1,0-.93.32.32,0,0,1,.15-.22.7.7,0,0,1,.34-.06h.16l.13,0v.22l-.24,0a.54.54,0,0,0-.22,0,.16.16,0,0,0-.08.13,3.45,3.45,0,0,0,0,.7.16.16,0,0,0,.08.13.54.54,0,0,0,.22,0l.24,0V47Z"/>
              <path class="cls-9" d="M2.77,47l-.09-.32H2.2L2.12,47H1.85l.41-1.45h.37L3,47Zm-.32-1.2h0l-.17.64h.35Z"/>
              <path class="cls-9" d="M3.42,47.06,3.2,47v-.22l.38,0h.15l.08,0a.09.09,0,0,0,0-.05.56.56,0,0,0,0-.1.46.46,0,0,0,0-.11.08.08,0,0,0,0,0l-.09,0-.27,0a.26.26,0,0,1-.21-.12A.57.57,0,0,1,3.16,46a.52.52,0,0,1,.06-.27.29.29,0,0,1,.16-.13.87.87,0,0,1,.26,0h.22l.18,0v.22l-.34,0H3.56l-.08,0a.09.09,0,0,0,0,.05.43.43,0,0,0,0,.1.45.45,0,0,0,0,.1.07.07,0,0,0,0,0l.09,0,.27,0a.39.39,0,0,1,.15,0,.24.24,0,0,1,.09.11.69.69,0,0,1,0,.25.62.62,0,0,1-.05.29A.26.26,0,0,1,3.9,47a.82.82,0,0,1-.25,0Z"/>
              <path class="cls-9" d="M5.1,47v-.61H4.62V47H4.35V45.6h.27v.6H5.1v-.6h.27V47Z"/>
            </g>
            <g id="Forma_1-2" data-name="Forma 1">
              <path class="cls-10" d="M6.14,40.57H.08a.09.09,0,0,0-.08.09v3.52a.09.09,0,0,0,.08.09H6.14a.09.09,0,0,0,.08-.09V40.66A.09.09,0,0,0,6.14,40.57Zm-6,.17H.7a.62.62,0,0,1-.53.53Zm0,3.35v-.53a.62.62,0,0,1,.53.53Zm5.88,0H5.53a.62.62,0,0,1,.53-.53Zm0-.71a.79.79,0,0,0-.7.71H.87a.79.79,0,0,0-.7-.71V41.45a.79.79,0,0,0,.7-.71H5.36a.79.79,0,0,0,.7.71Zm0-2.11a.62.62,0,0,1-.53-.53h.53ZM3.23,42.35h0v-.68a.84.84,0,0,1,.38.14.08.08,0,0,0,.12,0,.09.09,0,0,0,0-.12,1,1,0,0,0-.49-.18v-.14a.08.08,0,1,0-.17,0v.14a.5.5,0,0,0-.49.49c0,.28.3.41.49.48v.65a1.15,1.15,0,0,1-.43-.18.08.08,0,0,0-.12,0,.09.09,0,0,0,0,.12A1.31,1.31,0,0,0,3,43.3v.19a.08.08,0,1,0,.17,0v-.18c.25,0,.55-.16.55-.46S3.44,42.42,3.23,42.35ZM3,42.28c-.17-.07-.32-.16-.32-.3A.33.33,0,0,1,3,41.67Zm.17.86v-.61c.22.07.38.15.38.32S3.37,43.12,3.2,43.14Z"/>
            </g>
            <g>
              <path class="cls-9" d="M21.22,28.32l-.22-1h0l-.22,1h-.35l-.29-1.45h.27L20.59,28h0l.24-1.14h.3L21.38,28h0l.2-1.14h.27l-.3,1.45Z"/>
              <path class="cls-9" d="M22.78,28.32,22.69,28h-.47l-.09.32h-.27l.41-1.45h.37l.41,1.45Zm-.32-1.2h0l-.17.64h.35Z"/>
              <path class="cls-9" d="M23.24,28.32V26.87h.27v1.21H24v.24Z"/>
              <path class="cls-9" d="M24.21,28.32V26.87h.27v1.21H25v.24Z"/>
              <path class="cls-9" d="M25.19,28.32V26.87H26v.23h-.58v.37H26v.23h-.5v.38H26v.23Z"/>
              <path class="cls-9" d="M26.53,28.32V27.11h-.36v-.24h1v.24H26.8v1.21Z"/>
            </g>
            <g id="Forma_1-3" data-name="Forma 1">
              <path class="cls-10" d="M25.95,22.92h-.09V20.78a.09.09,0,0,0-.09-.09H21.61a.51.51,0,0,0-.51.51v4a.51.51,0,0,0,.51.51h4.17a.09.09,0,0,0,.09-.09v-1.2h.09a.26.26,0,0,0,.26-.26v-1A.26.26,0,0,0,25.95,22.92Zm-4.34-2.06h4.09v.69H21.61a.34.34,0,0,1,0-.69Zm2.13,2.32a.09.09,0,1,1-.09-.09A.09.09,0,0,1,23.74,23.18ZM24,24.72a.09.09,0,1,1,.09-.09A.09.09,0,0,1,24,24.72Zm1.7.86h-.34v-.43a.26.26,0,0,0-.26-.26h-.19a.26.26,0,1,0,0,.17h.19a.09.09,0,0,1,.09.09v.43H24.08v-.7a.26.26,0,1,0-.17,0v.7h-.85V24.12a.09.09,0,0,1,.09-.09h.27a.26.26,0,1,0,0-.17h-.27a.26.26,0,0,0-.26.26v1.46H21.61a.34.34,0,0,1-.34-.34v-.09h1a.26.26,0,1,0,0-.17h-1v-.51h.85a.26.26,0,0,0,.26-.26v-.27a.26.26,0,1,0-.17,0v.27a.09.09,0,0,1-.09.09h-.85V22.92h.44a.26.26,0,1,0,0-.17h-.44v-.51h1.28a.26.26,0,0,1,.26.26v.44a.26.26,0,1,0,.17,0v-.44a.43.43,0,0,0-.43-.43H21.27v-.47h0l.06,0h0l.07,0h0l.08,0h2.06v1.22a.26.26,0,1,0,.17,0V21.72h2v.17h-.85a.43.43,0,0,0-.43.43v.1a.26.26,0,1,0,.17,0v-.1a.26.26,0,0,1,.26-.26h.85v.86h-.6a.77.77,0,0,0-.72.5h0l0,.06v.14h0s0,0,0,0v0h0v.22l0,.05v0l0,.05v0l0,0v0l0,0,0,0,0,0h0l0,0,0,0,0,0,0,0,0,0,0,0,.06,0h0a.76.76,0,0,0,.3.06h.6Zm-.94-.6a.09.09,0,1,1-.09-.09A.09.09,0,0,1,24.76,25Zm-1.19-1a.09.09,0,1,1,.09.09A.09.09,0,0,1,23.57,23.95Zm-1.19,1.11a.09.09,0,1,1,.09.09A.09.09,0,0,1,22.37,25.06Zm-.17-1.37a.09.09,0,1,1,.09.09A.09.09,0,0,1,22.2,23.69Zm-.34-.86a.09.09,0,1,1,.09.09A.09.09,0,0,1,21.86,22.83Zm1,.26a.09.09,0,1,1-.09.09A.09.09,0,0,1,22.88,23.09Zm1.7-.43a.09.09,0,1,1-.09-.09A.09.09,0,0,1,24.59,22.66ZM26,24.21a.09.09,0,0,1-.09.09H25.1a.59.59,0,0,1-.37-.13h0l0,0h0l0,0v0l0,0h0l0,0h0l0,0h0V23.7s0,0,0,0v-.14a.62.62,0,0,1,.6-.44h.83a.09.09,0,0,1,.09.09Zm-.94-.86a.34.34,0,1,0,.34.34A.34.34,0,0,0,25.1,23.35Zm0,.51a.17.17,0,1,1,.17-.17A.17.17,0,0,1,25.1,23.86Z"/>
            </g>
            <g>
              <path class="cls-9" d="M22.08,54.53h-.16a.71.71,0,0,1-.34-.06.32.32,0,0,1-.15-.22,2.93,2.93,0,0,1,0-.93.32.32,0,0,1,.15-.22.7.7,0,0,1,.34-.06h.16l.13,0v.22l-.24,0a.54.54,0,0,0-.22,0,.16.16,0,0,0-.08.13,3.45,3.45,0,0,0,0,.7.16.16,0,0,0,.08.13.54.54,0,0,0,.22,0l.24,0v.22Z"/>
              <path class="cls-9" d="M23.25,54.53l-.09-.32h-.47l-.09.32h-.27l.41-1.45h.37l.41,1.45Zm-.32-1.2h0l-.17.64h.35Z"/>
              <path class="cls-9" d="M24.44,54.53,24.26,54H24v.53h-.27V53.08h.58a.49.49,0,0,1,.26.05.26.26,0,0,1,.12.15.9.9,0,0,1,0,.26.82.82,0,0,1,0,.26.26.26,0,0,1-.14.16l.21.57Zm-.09-.78a.1.1,0,0,0,.06-.07.56.56,0,0,0,0-.15.54.54,0,0,0,0-.15.1.1,0,0,0-.06-.06l-.15,0H24v.46h.23Z"/>
              <path class="cls-9" d="M25,53.08h.44a.87.87,0,0,1,.38.06.27.27,0,0,1,.14.2,3.85,3.85,0,0,1,0,.93.27.27,0,0,1-.14.2.87.87,0,0,1-.38.06H25Zm.42,1.22a.61.61,0,0,0,.21,0,.14.14,0,0,0,.07-.12,4,4,0,0,0,0-.71.14.14,0,0,0-.07-.12.61.61,0,0,0-.21,0h-.16v1Z"/>
            </g>
            <g id="Shape_1" data-name="Shape 1">
              <path class="cls-10" d="M25.45,49.38h-1.6a.09.09,0,0,0-.1.1v.89a.09.09,0,0,0,.1.1h1.6a.09.09,0,0,0,.1-.1v-.89A.09.09,0,0,0,25.45,49.38Zm-.1.89H24v-.69h1.4Zm-4.21-1.09h.8a.1.1,0,1,0,0-.2h-.8a.1.1,0,1,0,0,.2Zm2-.2h-.8a.1.1,0,1,0,0,.2h.8a.1.1,0,1,0,0-.2Zm-.7.4h-1.3a.1.1,0,1,0,0,.2h1.3a.1.1,0,1,0,0-.2Zm.7,0h-.3a.1.1,0,1,0,0,.2h.3a.1.1,0,1,0,0-.2Zm3.42-1.23A.38.38,0,0,0,26.3,48l-.24,0v-.48a.4.4,0,0,0-.4-.4H21a.4.4,0,0,0-.4.4v3.17a.4.4,0,0,0,.29.38.39.39,0,0,0,.35.39l4.63.52h0a.4.4,0,0,0,.4-.34l.3-3.18A.38.38,0,0,0,26.57,48.15Zm-5.73-.65a.2.2,0,0,1,.2-.2h4.61a.2.2,0,0,1,.2.2v.1h-5Zm0,.3h5v.59h-5Zm0,2.87V48.58h5v2.08a.2.2,0,0,1-.2.2H21A.2.2,0,0,1,20.84,50.67Zm5.32.91a.2.2,0,0,1-.22.18l-4.62-.52a.2.2,0,0,1-.18-.18h4.52a.4.4,0,0,0,.4-.4V48.16l.23,0a.17.17,0,0,1,.13.07.2.2,0,0,1,0,.15Z"/>
            </g>
            <g id="Shape_4" data-name="Shape 4">
              <rect class="cls-8" x="7.89" y="32.53" width="3.59" height="0.25"/>
            </g>
            <g id="Shape_4_copy" data-name="Shape 4 copy">
              <rect class="cls-11" x="7.89" y="43.71" width="3.59" height="0.25"/>
              <rect class="cls-8" x="7.89" y="43.71" width="3.59" height="0.25"/>
            </g>
            <g id="Shape_5" data-name="Shape 5">
              <rect class="cls-11" x="11.23" y="32.53" width="0.25" height="11.43"/>
              <rect class="cls-8" x="11.23" y="32.53" width="0.25" height="11.43"/>
            </g>
            <g id="Shape_6" data-name="Shape 6">
              <rect class="cls-8" x="11.43" y="38.14" width="4.35" height="0.25"/>
            </g>
            <g id="Shape_7" data-name="Shape 7">
              <rect class="cls-8" x="15.53" y="25.09" width="0.25" height="13.05"/>
            </g>
            <g id="Shape_7_copy" data-name="Shape 7 copy">
              <rect class="cls-8" x="15.53" y="38.35" width="0.25" height="13.05"/>
            </g>
            <g id="Shape_8" data-name="Shape 8">
              <rect class="cls-11" x="15.53" y="51.35" width="3.39" height="0.25"/>
              <rect class="cls-8" x="15.53" y="51.35" width="3.39" height="0.25"/>
            </g>
            <g id="Shape_8_copy_4" data-name="Shape 8 copy 4">
              <rect class="cls-11" x="28.49" y="51.35" width="10.47" height="0.25"/>
              <rect class="cls-8" x="28.49" y="51.35" width="10.47" height="0.25"/>
            </g>
            <g id="Shape_8_copy" data-name="Shape 8 copy">
              <rect class="cls-11" x="15.53" y="24.84" width="3.39" height="0.25"/>
              <rect class="cls-8" x="15.53" y="24.84" width="3.39" height="0.25"/>
            </g>
            <g id="Shape_8_copy_2" data-name="Shape 8 copy 2">
              <rect class="cls-11" x="28.63" y="24.84" width="3.39" height="0.25"/>
            </g>
            <g id="Shape_8_copy_3" data-name="Shape 8 copy 3">
              <rect class="cls-11" x="28.43" y="24.84" width="10.47" height="0.25"/>
              <rect class="cls-8" x="28.43" y="24.84" width="10.47" height="0.25"/>
            </g>
            <g id="lights-left">
              <g id="Ellipse_1" data-name="Ellipse 1">
                <circle class="cls-12" cx="8.12" cy="43.81" r="0.57"/>
                <path class="cls-9" d="M8.12,43.41a.4.4,0,1,1-.4.4.4.4,0,0,1,.4-.4m0-.34a.74.74,0,1,0,.74.74.74.74,0,0,0-.74-.74Z"/>
              </g>
              <g id="Ellipse_1_copy" data-name="Ellipse 1 copy">
                <circle class="cls-12" cx="8.12" cy="32.68" r="0.57"/>
                <path class="cls-9" d="M8.12,32.28a.4.4,0,1,1-.4.4.4.4,0,0,1,.4-.4m0-.34a.74.74,0,1,0,.74.74.74.74,0,0,0-.74-.74Z"/>
              </g>
              <g id="Ellipse_1_copy_2" data-name="Ellipse 1 copy 2">
                <circle class="cls-12" cx="19.1" cy="51.5" r="0.57"/>
                <path class="cls-9" d="M19.1,51.1a.4.4,0,1,1-.4.4.4.4,0,0,1,.4-.4m0-.34a.74.74,0,1,0,.74.74.74.74,0,0,0-.74-.74Z"/>
              </g>
              <g id="Ellipse_1_copy_3" data-name="Ellipse 1 copy 3">
                <circle class="cls-12" cx="19.1" cy="24.94" r="0.57"/>
                <path class="cls-9" d="M19.1,24.54a.4.4,0,1,1-.4.4.4.4,0,0,1,.4-.4m0-.34a.74.74,0,1,0,.74.74.74.74,0,0,0-.74-.74Z"/>
              </g>
              <g id="Ellipse_1_copy_4" data-name="Ellipse 1 copy 4">
                <circle class="cls-12" cx="28.66" cy="24.94" r="0.57"/>
                <path class="cls-9" d="M28.66,24.54a.4.4,0,1,1-.4.4.4.4,0,0,1,.4-.4m0-.34a.74.74,0,1,0,.74.74.74.74,0,0,0-.74-.74Z"/>
              </g>
              <g id="Ellipse_1_copy_5" data-name="Ellipse 1 copy 5">
                <circle class="cls-12" cx="28.61" cy="51.45" r="0.57"/>
                <path class="cls-9" d="M28.61,51.05a.4.4,0,1,1-.4.4.4.4,0,0,1,.4-.4m0-.34a.74.74,0,1,0,.74.74.74.74,0,0,0-.74-.74Z"/>
              </g>
              <g id="Ellipse_1_copy_6" data-name="Ellipse 1 copy 6">
                <circle class="cls-12" cx="47.17" cy="63.03" r="0.57"/>
                <path class="cls-9" d="M47.17,62.64a.4.4,0,1,1-.4.4.4.4,0,0,1,.4-.4m0-.34a.74.74,0,1,0,.74.74.74.74,0,0,0-.74-.74Z"/>
              </g>
              <g id="Ellipse_1_copy_7" data-name="Ellipse 1 copy 7">
                <circle class="cls-12" cx="47.23" cy="12.09" r="0.57"/>
                <path class="cls-9" d="M47.23,11.69a.4.4,0,1,1-.4.4.4.4,0,0,1,.4-.4m0-.34a.74.74,0,1,0,.74.74.74.74,0,0,0-.74-.74Z"/>
              </g>
              <g id="Ellipse_1_copy_8" data-name="Ellipse 1 copy 8">
                <circle class="cls-12" cx="39.03" cy="24.94" r="0.57"/>
                <path class="cls-9" d="M39,24.54a.4.4,0,1,1-.4.4.4.4,0,0,1,.4-.4m0-.34a.74.74,0,1,0,.74.74A.74.74,0,0,0,39,24.2Z"/>
              </g>
              <g id="Ellipse_1_copy_9" data-name="Ellipse 1 copy 9">
                <circle class="cls-12" cx="39.08" cy="51.5" r="0.57"/>
                <path class="cls-9" d="M39.08,51.1a.4.4,0,1,1-.4.4.4.4,0,0,1,.4-.4m0-.34a.74.74,0,1,0,.74.74.74.74,0,0,0-.74-.74Z"/>
              </g>
              <g id="Ellipse_1_copy_10" data-name="Ellipse 1 copy 10">
                <circle class="cls-12" cx="15.76" cy="38.24" r="0.57"/>
                <path class="cls-9" d="M15.76,37.85a.4.4,0,1,1-.4.4.4.4,0,0,1,.4-.4m0-.34a.74.74,0,1,0,.74.74.74.74,0,0,0-.74-.74Z"/>
              </g>
              <g id="Ellipse_1_copy_11" data-name="Ellipse 1 copy 11">
                <circle class="cls-12" cx="11.46" cy="38.24" r="0.57"/>
                <path class="cls-9" d="M11.46,37.85a.4.4,0,1,1-.4.4.4.4,0,0,1,.4-.4m0-.34a.74.74,0,1,0,.74.74.74.74,0,0,0-.74-.74Z"/>
              </g>
            </g>
            <g id="Shape_9-2" data-name="Shape 9">
              <rect class="cls-8" x="112.81" y="12.24" width="0.25" height="50.69"/>
            </g>
            <g id="Shape_10-2" data-name="Shape 10">
              <rect class="cls-11" x="105.02" y="11.99" width="8.04" height="0.25"/>
              <rect class="cls-8" x="105.02" y="11.99" width="8.04" height="0.25"/>
            </g>
            <g id="Shape_10_copy-2" data-name="Shape 10 copy">
              <rect class="cls-8" x="105.02" y="62.88" width="8.04" height="0.25"/>
            </g>
            <g>
              <path class="cls-9" d="M146.51,35.48h.6a.38.38,0,0,1,.28.09.37.37,0,0,1,.09.27.42.42,0,0,1-.05.23.27.27,0,0,1-.17.11h0a.28.28,0,0,1,.18.11.44.44,0,0,1,.05.24.42.42,0,0,1-.09.29.39.39,0,0,1-.3.1h-.6Zm.66.56a.2.2,0,0,0,0-.14.34.34,0,0,0,0-.12.09.09,0,0,0-.05-.05l-.12,0h-.24v.37H147A.22.22,0,0,0,147.17,36Zm0,.64a.1.1,0,0,0,.06-.06.34.34,0,0,0,0-.12.33.33,0,0,0,0-.12.1.1,0,0,0-.06-.06l-.12,0h-.25v.39H147Z"/>
              <path class="cls-9" d="M148.54,36.93l-.09-.32H148l-.09.32h-.27l.41-1.45h.37l.41,1.45Zm-.32-1.2h0l-.17.64h.35Z"/>
              <path class="cls-9" d="M149.77,36.93l-.5-.92h0v.92H149V35.48h.27l.48.87h0v-.87H150v1.45Z"/>
              <path class="cls-9" d="M151.08,36.93l-.35-.62h-.13v.62h-.27V35.48h.27v.6h.13l.36-.6h.29l-.43.69.44.76Z"/>
            </g>
            <g id="Forma_1-4" data-name="Forma 1">
              <path class="cls-10" d="M151,31.43a.14.14,0,0,0,.14-.14v-.15a.14.14,0,0,0,.11-.14v-.55h.43a.16.16,0,0,0,.09-.29l-2-1.27a.08.08,0,1,0-.09.14l1.94,1.25h-.45L149,28.87a.23.23,0,0,0-.25,0l-2.21,1.42H146l2.79-1.79.4.25a.08.08,0,1,0,.09-.14l-.4-.25a.17.17,0,0,0-.18,0l-2.82,1.81a.16.16,0,0,0,.09.29h.43V31a.14.14,0,0,0,.11.14v.15a.14.14,0,0,0,.14.14h0v1a.08.08,0,0,0,.17,0V31.35a.08.08,0,0,0-.08-.08h-.07v-.12h.6v.12h-.07a.08.08,0,0,0-.08.08v1.87a.08.08,0,0,0,.08.08h.07v.13h-.6V33.3h.07a.08.08,0,0,0,.08-.08V33a.08.08,0,0,0-.17,0v.13h0a.14.14,0,0,0-.14.14v.15a.14.14,0,0,0-.11.14v.17h-.3a.17.17,0,0,0-.17.17v.18a.17.17,0,0,0,.17.17h5.4a.17.17,0,0,0,.17-.17V33.9a.17.17,0,0,0-.17-.17h-.3v-.17a.14.14,0,0,0-.11-.14v-.15a.14.14,0,0,0-.14-.14h0v-1.7ZM148.8,29a.06.06,0,0,1,.06,0l2,1.28h-4Zm-2.2,1.45h4.46v.21h-4.46Zm2.7,3v-.15a.14.14,0,0,0-.14-.14h0v-1.7h0a.14.14,0,0,0,.14-.14v-.15a.14.14,0,0,0,.11-.14v-.17h.65V31a.14.14,0,0,0,.11.14v.15a.14.14,0,0,0,.14.14h0v1.7h0a.14.14,0,0,0-.14.14v.15a.14.14,0,0,0-.11.14v.17h-.65v-.17A.14.14,0,0,0,149.3,33.42Zm-1.82,0v-.15a.14.14,0,0,0-.14-.14h0v-1.7h0a.14.14,0,0,0,.14-.14v-.15a.14.14,0,0,0,.11-.14v-.17h.65V31a.14.14,0,0,0,.11.14v.15a.14.14,0,0,0,.14.14h0v1.7h0a.14.14,0,0,0-.14.14v.15a.14.14,0,0,0-.11.14v.17h-.65v-.17A.14.14,0,0,0,147.49,33.42Zm1.58-.12h.07v.13h-.6V33.3h.07a.08.08,0,0,0,.08-.08V31.35a.08.08,0,0,0-.08-.08h-.07v-.12h.6v.12h-.07a.08.08,0,0,0-.08.08v1.87A.08.08,0,0,0,149.07,33.3ZM148.42,31v-.14h.82V31h-.82Zm0,2.62h.82v.14h-.82ZM146.61,31v-.14h.82V31Zm0,2.62h.82v.14h-.82Zm4.93.31v.18h-5.4V33.9Zm-.5-.3h0v.14h-.82V33.6h.8Zm-.62-2.34h-.07v-.12h.6v.12h-.07a.08.08,0,0,0-.08.08v1.87a.08.08,0,0,0,.08.08h.07v.13h-.6V33.3h.07a.08.08,0,0,0,.08-.08V31.35A.08.08,0,0,0,150.42,31.26Zm-.18-.29v-.14h.82V31h-.82Zm-1.37-1.35v-.26c.09,0,.13,0,.16,0s.06,0,.06-.07-.13-.09-.21-.09v0s0,0,0,0a0,0,0,0,0,0,0v0a.24.24,0,0,0-.25.24c0,.17.13.21.25.26V30c-.13,0-.17-.1-.21-.1s-.06,0-.06.07.11.15.27.15v0a0,0,0,0,0,0,0s0,0,0,0v0a.25.25,0,0,0,.24-.27C149.11,29.73,149,29.67,148.87,29.63Zm-.07,0c-.07,0-.13-.05-.13-.13s.05-.1.13-.11Zm.06.44v-.27a.15.15,0,0,1,.11.15A.12.12,0,0,1,148.86,30Z"/>
            </g>
            <g>
              <path class="cls-9" d="M147.2,47.06H147a.71.71,0,0,1-.34-.06.32.32,0,0,1-.15-.22,2.93,2.93,0,0,1,0-.93.32.32,0,0,1,.15-.22.7.7,0,0,1,.34-.06h.16l.14,0v.22l-.24,0a.54.54,0,0,0-.22,0,.16.16,0,0,0-.08.13,3.45,3.45,0,0,0,0,.7.16.16,0,0,0,.08.13.54.54,0,0,0,.22,0l.24,0V47Z"/>
              <path class="cls-9" d="M148.38,47l-.09-.32h-.47l-.09.32h-.27l.41-1.45h.37l.41,1.45Zm-.32-1.2h0l-.17.64h.35Z"/>
              <path class="cls-9" d="M149,47.06l-.22,0v-.22l.38,0h.15l.08,0a.09.09,0,0,0,0-.05.55.55,0,0,0,0-.1.46.46,0,0,0,0-.11.08.08,0,0,0,0,0l-.09,0-.27,0a.26.26,0,0,1-.21-.12.57.57,0,0,1-.06-.28.52.52,0,0,1,.06-.27.29.29,0,0,1,.16-.13.87.87,0,0,1,.26,0h.22l.18,0v.22l-.34,0h-.15l-.08,0a.09.09,0,0,0,0,.05.43.43,0,0,0,0,.1.45.45,0,0,0,0,.1.06.06,0,0,0,0,0l.09,0,.27,0a.39.39,0,0,1,.15,0,.24.24,0,0,1,.09.11.69.69,0,0,1,0,.25.62.62,0,0,1-.05.29.26.26,0,0,1-.15.13.82.82,0,0,1-.25,0Z"/>
              <path class="cls-9" d="M150.71,47v-.61h-.48V47H150V45.6h.27v.6h.48v-.6H151V47Z"/>
            </g>
            <g id="Forma_1-5" data-name="Forma 1">
              <path class="cls-10" d="M151.83,40.57h-6.05a.09.09,0,0,0-.08.09v3.52a.09.09,0,0,0,.08.09h6.05a.09.09,0,0,0,.08-.09V40.66A.09.09,0,0,0,151.83,40.57Zm-6,.17h.53a.62.62,0,0,1-.53.53Zm0,3.35v-.53a.62.62,0,0,1,.53.53Zm5.88,0h-.53a.62.62,0,0,1,.53-.53Zm0-.71a.79.79,0,0,0-.7.71h-4.49a.79.79,0,0,0-.7-.71V41.45a.79.79,0,0,0,.7-.71h4.49a.79.79,0,0,0,.7.71Zm0-2.11a.62.62,0,0,1-.53-.53h.53Zm-2.83,1.08h0v-.68a.84.84,0,0,1,.38.14.08.08,0,0,0,.12,0,.09.09,0,0,0,0-.12,1,1,0,0,0-.49-.18v-.14a.08.08,0,1,0-.17,0v.14a.5.5,0,0,0-.49.49c0,.28.3.41.49.48v.65a1.15,1.15,0,0,1-.43-.18.08.08,0,0,0-.12,0,.09.09,0,0,0,0,.12,1.32,1.32,0,0,0,.53.23v.19a.08.08,0,1,0,.17,0v-.18c.25,0,.55-.16.55-.46S149.13,42.42,148.92,42.35Zm-.19-.07c-.17-.07-.32-.16-.32-.3a.33.33,0,0,1,.32-.32Zm.17.86v-.61c.22.07.38.15.38.32S149.07,43.12,148.9,43.14Z"/>
            </g>
            <g id="Ellipse_1-2" data-name="Ellipse 1">
              <circle class="cls-12" cx="143.93" cy="43.81" r="0.57"/>
              <path class="cls-9" d="M143.93,43.41a.4.4,0,1,1-.4.4.4.4,0,0,1,.4-.4m0-.34a.74.74,0,1,0,.74.74.74.74,0,0,0-.74-.74Z"/>
            </g>
            <g id="Ellipse_1_copy-2" data-name="Ellipse 1 copy">
              <circle class="cls-12" cx="143.93" cy="32.68" r="0.57"/>
              <path class="cls-9" d="M143.93,32.28a.4.4,0,1,1-.4.4.4.4,0,0,1,.4-.4m0-.34a.74.74,0,1,0,.74.74.74.74,0,0,0-.74-.74Z"/>
            </g>
            <g id="Ellipse_1_copy_2-2" data-name="Ellipse 1 copy 2">
              <circle class="cls-12" cx="132.95" cy="51.5" r="0.57"/>
              <path class="cls-9" d="M132.95,51.1a.4.4,0,1,1-.4.4.4.4,0,0,1,.4-.4m0-.34a.74.74,0,1,0,.74.74.74.74,0,0,0-.74-.74Z"/>
            </g>
            <g id="Ellipse_1_copy_3-2" data-name="Ellipse 1 copy 3">
              <circle class="cls-12" cx="132.95" cy="24.94" r="0.57"/>
              <path class="cls-9" d="M132.95,24.54a.4.4,0,1,1-.4.4.4.4,0,0,1,.4-.4m0-.34a.74.74,0,1,0,.74.74.74.74,0,0,0-.74-.74Z"/>
            </g>
            <g id="Ellipse_1_copy_4-2" data-name="Ellipse 1 copy 4">
              <circle class="cls-12" cx="123.39" cy="24.94" r="0.57"/>
              <path class="cls-9" d="M123.39,24.54a.4.4,0,1,1-.4.4.4.4,0,0,1,.4-.4m0-.34a.74.74,0,1,0,.74.74.74.74,0,0,0-.74-.74Z"/>
            </g>
            <g id="Ellipse_1_copy_5-2" data-name="Ellipse 1 copy 5">
              <circle class="cls-12" cx="123.44" cy="51.45" r="0.57"/>
              <path class="cls-9" d="M123.44,51.05a.4.4,0,1,1-.4.4.4.4,0,0,1,.4-.4m0-.34a.74.74,0,1,0,.74.74.74.74,0,0,0-.74-.74Z"/>
            </g>
            <g id="Ellipse_1_copy_6-2" data-name="Ellipse 1 copy 6">
              <circle class="cls-12" cx="104.87" cy="63.03" r="0.57"/>
              <path class="cls-9" d="M104.87,62.64a.4.4,0,1,1-.4.4.4.4,0,0,1,.4-.4m0-.34a.74.74,0,1,0,.74.74.74.74,0,0,0-.74-.74Z"/>
            </g>
            <g id="Ellipse_1_copy_7-2" data-name="Ellipse 1 copy 7">
              <circle class="cls-12" cx="104.82" cy="12.09" r="0.57"/>
              <path class="cls-9" d="M104.82,11.69a.4.4,0,1,1-.4.4.4.4,0,0,1,.4-.4m0-.34a.74.74,0,1,0,.74.74.74.74,0,0,0-.74-.74Z"/>
            </g>
            <g id="Ellipse_1_copy_8-2" data-name="Ellipse 1 copy 8">
              <circle class="cls-12" cx="113.02" cy="24.94" r="0.57"/>
              <path class="cls-9" d="M113,24.54a.4.4,0,1,1-.4.4.4.4,0,0,1,.4-.4m0-.34a.74.74,0,1,0,.74.74.74.74,0,0,0-.74-.74Z"/>
            </g>
            <g id="Ellipse_1_copy_9-2" data-name="Ellipse 1 copy 9">
              <circle class="cls-12" cx="112.97" cy="51.5" r="0.57"/>
              <path class="cls-9" d="M113,51.1a.4.4,0,1,1-.4.4.4.4,0,0,1,.4-.4m0-.34a.74.74,0,1,0,.74.74.74.74,0,0,0-.74-.74Z"/>
            </g>
            <g id="Ellipse_1_copy_10-2" data-name="Ellipse 1 copy 10">
              <circle class="cls-12" cx="136.29" cy="38.24" r="0.57"/>
              <path class="cls-9" d="M136.29,37.85a.4.4,0,1,1-.4.4.4.4,0,0,1,.4-.4m0-.34a.74.74,0,1,0,.74.74.74.74,0,0,0-.74-.74Z"/>
            </g>
            <g id="Ellipse_1_copy_11-2" data-name="Ellipse 1 copy 11">
              <circle class="cls-12" cx="140.59" cy="38.24" r="0.57"/>
              <path class="cls-9" d="M140.59,37.85a.4.4,0,1,1-.4.4.4.4,0,0,1,.4-.4m0-.34a.74.74,0,1,0,.74.74.74.74,0,0,0-.74-.74Z"/>
            </g>
            <g>
              <path class="cls-9" d="M125.91,28.32l-.22-1h0l-.22,1h-.35l-.29-1.45h.27l.21,1.14h0l.24-1.14h.3l.24,1.14h0l.2-1.14h.27l-.29,1.45Z"/>
              <path class="cls-9" d="M127.47,28.32l-.09-.32h-.47l-.09.32h-.27l.41-1.45h.37l.41,1.45Zm-.32-1.2h0l-.17.64h.35Z"/>
              <path class="cls-9" d="M127.93,28.32V26.87h.27v1.21h.51v.24Z"/>
              <path class="cls-9" d="M128.91,28.32V26.87h.27v1.21h.51v.24Z"/>
              <path class="cls-9" d="M129.88,28.32V26.87h.85v.23h-.58v.37h.5v.23h-.5v.38h.58v.23Z"/>
              <path class="cls-9" d="M131.22,28.32V27.11h-.36v-.24h1v.24h-.36v1.21Z"/>
            </g>
            <g>
              <path class="cls-9" d="M126.67,54.53h-.16a.71.71,0,0,1-.34-.06.32.32,0,0,1-.15-.22,2.93,2.93,0,0,1,0-.93.32.32,0,0,1,.15-.22.7.7,0,0,1,.34-.06h.16l.14,0v.22l-.24,0a.54.54,0,0,0-.22,0,.16.16,0,0,0-.08.13,3.45,3.45,0,0,0,0,.7.16.16,0,0,0,.08.13.54.54,0,0,0,.22,0l.24,0v.22Z"/>
              <path class="cls-9" d="M127.84,54.53l-.09-.32h-.47l-.09.32h-.27l.41-1.45h.37l.41,1.45Zm-.32-1.2h0l-.17.64h.35Z"/>
              <path class="cls-9" d="M129,54.53l-.18-.53h-.28v.53h-.27V53.08h.58a.5.5,0,0,1,.26.05.26.26,0,0,1,.12.15.9.9,0,0,1,0,.26.82.82,0,0,1,0,.26.26.26,0,0,1-.14.16l.21.57Zm-.09-.78a.1.1,0,0,0,.06-.07.56.56,0,0,0,0-.15.55.55,0,0,0,0-.15.1.1,0,0,0-.06-.06l-.15,0h-.23v.46h.23Z"/>
              <path class="cls-9" d="M129.54,53.08H130a.87.87,0,0,1,.38.06.27.27,0,0,1,.14.2,3.82,3.82,0,0,1,0,.93.27.27,0,0,1-.14.2.87.87,0,0,1-.38.06h-.44Zm.42,1.22a.61.61,0,0,0,.21,0,.14.14,0,0,0,.07-.12,4,4,0,0,0,0-.71.14.14,0,0,0-.07-.12.61.61,0,0,0-.21,0h-.16v1Z"/>
            </g>
            <g id="Forma_1-6" data-name="Forma 1">
              <path class="cls-10" d="M130.57,22.92h-.09V20.78a.09.09,0,0,0-.09-.09h-4.17a.51.51,0,0,0-.51.51v4a.51.51,0,0,0,.51.51h4.17a.09.09,0,0,0,.09-.09v-1.2h.09a.26.26,0,0,0,.26-.26v-1A.26.26,0,0,0,130.57,22.92Zm-4.34-2.06h4.09v.69h-4.09a.34.34,0,0,1,0-.69Zm2.13,2.32a.09.09,0,1,1-.09-.09A.09.09,0,0,1,128.35,23.18Zm.26,1.54a.09.09,0,1,1,.09-.09A.09.09,0,0,1,128.61,24.72Zm1.7.86H130v-.43a.26.26,0,0,0-.26-.26h-.19a.26.26,0,1,0,0,.17h.19a.09.09,0,0,1,.09.09v.43h-1.11v-.7a.26.26,0,1,0-.17,0v.7h-.85V24.12a.09.09,0,0,1,.09-.09H128a.26.26,0,1,0,0-.17h-.27a.26.26,0,0,0-.26.26v1.46h-1.28a.34.34,0,0,1-.34-.34v-.09h1a.26.26,0,1,0,0-.17h-1v-.51h.85a.26.26,0,0,0,.26-.26v-.27a.26.26,0,1,0-.17,0v.27a.09.09,0,0,1-.09.09h-.85V22.92h.44a.26.26,0,1,0,0-.17h-.44v-.51h1.28a.26.26,0,0,1,.26.26v.44a.26.26,0,1,0,.17,0v-.44a.43.43,0,0,0-.43-.43h-1.28v-.47h0l.06,0h0l.07,0h0l.08,0h2.06v1.22a.26.26,0,1,0,.17,0V21.72h2v.17h-.85a.43.43,0,0,0-.43.43v.1a.26.26,0,1,0,.17,0v-.1a.26.26,0,0,1,.26-.26h.85v.86h-.6a.77.77,0,0,0-.72.5h0l0,.06v.14h0s0,0,0,0v0h0v.22l0,.05v0l0,.05v0l0,0v0l0,0,0,0,0,0h0l0,0,0,0,0,0,0,0,0,0,0,0,.06,0h0a.76.76,0,0,0,.3.06h.6Zm-.94-.6a.09.09,0,1,1-.09-.09A.09.09,0,0,1,129.38,25Zm-1.19-1a.09.09,0,1,1,.09.09A.09.09,0,0,1,128.18,23.95ZM127,25.06a.09.09,0,1,1,.09.09A.09.09,0,0,1,127,25.06Zm-.17-1.37a.09.09,0,1,1,.09.09A.09.09,0,0,1,126.82,23.69Zm-.34-.86a.09.09,0,1,1,.09.09A.09.09,0,0,1,126.48,22.83Zm1,.26a.09.09,0,1,1-.09.09A.09.09,0,0,1,127.5,23.09Zm1.7-.43a.09.09,0,1,1-.09-.09A.09.09,0,0,1,129.21,22.66Zm1.45,1.54a.09.09,0,0,1-.09.09h-.85a.59.59,0,0,1-.37-.13h0l0,0h0l0,0v0l0,0h0l0,0h0l0,0h0V23.7s0,0,0,0v-.14a.62.62,0,0,1,.6-.44h.83a.09.09,0,0,1,.09.09Zm-.94-.86a.34.34,0,1,0,.34.34A.34.34,0,0,0,129.72,23.35Zm0,.51a.17.17,0,1,1,.17-.17A.17.17,0,0,1,129.72,23.86Z"/>
            </g>
            <g id="Shape_1-2" data-name="Shape 1">
              <path class="cls-10" d="M130.07,49.38h-1.6a.09.09,0,0,0-.1.1v.89a.09.09,0,0,0,.1.1h1.6a.09.09,0,0,0,.1-.1v-.89A.09.09,0,0,0,130.07,49.38Zm-.1.89h-1.4v-.69H130Zm-4.21-1.09h.8a.1.1,0,1,0,0-.2h-.8a.1.1,0,1,0,0,.2Zm2-.2H127a.1.1,0,1,0,0,.2h.8a.1.1,0,1,0,0-.2Zm-.7.4h-1.3a.1.1,0,1,0,0,.2h1.3a.1.1,0,1,0,0-.2Zm.7,0h-.3a.1.1,0,1,0,0,.2h.3a.1.1,0,1,0,0-.2Zm3.42-1.23a.38.38,0,0,0-.27-.15l-.24,0v-.48a.4.4,0,0,0-.4-.4h-4.61a.4.4,0,0,0-.4.4v3.17a.4.4,0,0,0,.29.38.39.39,0,0,0,.35.39l4.63.52h0a.4.4,0,0,0,.4-.34l.3-3.18A.38.38,0,0,0,131.19,48.15Zm-5.73-.65a.2.2,0,0,1,.2-.2h4.61a.2.2,0,0,1,.2.2v.1h-5Zm0,.3h5v.59h-5Zm0,2.87V48.58h5v2.08a.2.2,0,0,1-.2.2h-4.61A.2.2,0,0,1,125.46,50.67Zm5.32.91a.2.2,0,0,1-.22.18l-4.62-.52a.2.2,0,0,1-.18-.18h4.52a.4.4,0,0,0,.4-.4V48.16l.23,0a.17.17,0,0,1,.13.07.2.2,0,0,1,0,.15Z"/>
            </g>
            <g id="Shape_4-2" data-name="Shape 4">
              <rect class="cls-8" x="140.44" y="32.53" width="3.59" height="0.25"/>
            </g>
            <g id="Shape_4_copy-2" data-name="Shape 4 copy">
              <rect class="cls-11" x="140.44" y="43.71" width="3.59" height="0.25"/>
              <rect class="cls-8" x="140.44" y="43.71" width="3.59" height="0.25"/>
            </g>
            <g id="Shape_5-2" data-name="Shape 5">
              <rect class="cls-11" x="140.44" y="32.53" width="0.25" height="11.43"/>
              <rect class="cls-8" x="140.44" y="32.53" width="0.25" height="11.43"/>
            </g>
            <g id="Shape_6-2" data-name="Shape 6">
              <rect class="cls-8" x="136.14" y="38.14" width="4.35" height="0.25"/>
            </g>
            <g id="Shape_7-2" data-name="Shape 7">
              <rect class="cls-8" x="136.14" y="25.09" width="0.25" height="13.05"/>
            </g>
            <g id="Shape_7_copy-2" data-name="Shape 7 copy">
              <rect class="cls-8" x="136.14" y="38.35" width="0.25" height="13.05"/>
            </g>
            <g id="Shape_8-2" data-name="Shape 8">
              <rect class="cls-8" x="133" y="51.35" width="3.39" height="0.25"/>
            </g>
            <g id="Shape_8_copy_4-2" data-name="Shape 8 copy 4">
              <rect class="cls-8" x="112.97" y="51.35" width="10.47" height="0.25"/>
            </g>
            <g id="Shape_8_copy-2" data-name="Shape 8 copy">
              <rect class="cls-11" x="133" y="24.84" width="3.39" height="0.25"/>
              <rect class="cls-8" x="133" y="24.84" width="3.39" height="0.25"/>
            </g>
            <g id="Shape_8_copy_2-2" data-name="Shape 8 copy 2">
              <rect class="cls-11" x="119.9" y="24.84" width="3.39" height="0.25"/>
            </g>
            <g id="Shape_8_copy_3-2" data-name="Shape 8 copy 3">
              <rect class="cls-11" x="113.02" y="24.84" width="10.47" height="0.25"/>
              <rect class="cls-8" x="113.02" y="24.84" width="10.47" height="0.25"/>
            </g>
          </g>
        </g>
      </g>
    </g>
  </g>
</svg>
