<svg xmlns="http://www.w3.org/2000/svg" xmlns:xlink="http://www.w3.org/1999/xlink" viewBox="0 0 53.38 49.83">
  <defs>
    <style>
      .cls-1 {
        fill: none;
      }

      .cls-2 {
        clip-path: url(#clip-path);
      }

      .cls-3 {
        fill: #035c75;
      }

      .cls-4 {
        clip-path: url(#clip-path-2);
      }

      .cls-5 {
        fill: #00bdde;
      }
    </style>
    <clipPath id="clip-path" transform="translate(0 -0.04)">
      <rect class="cls-1" width="51.73" height="48.26"/>
    </clipPath>
    <clipPath id="clip-path-2" transform="translate(0 -0.04)">
      <rect class="cls-1" x="1.74" y="1.74" width="51.73" height="48.26"/>
    </clipPath>
  </defs>
  <title>traxion-chain_1</title>
  <g id="Layer_2" data-name="Layer 2">
    <g id="Layer_1-2" data-name="Layer 1">
      <g>
        <g class="cls-2">
          <path class="cls-3" d="M27.3,20.65a1.44,1.44,0,0,0,0,2,6,6,0,0,1,0,8.49L15,43.49a6,6,0,0,1-8.49,0L4.65,41.64a6,6,0,0,1,0-8.49L17,20.85a1.44,1.44,0,0,0-2-2L2.61,31.1a8.88,8.88,0,0,0,0,12.58l1.85,1.85a8.91,8.91,0,0,0,12.58,0l12.3-12.3a8.91,8.91,0,0,0,0-12.58,1.44,1.44,0,0,0-2,0Zm0,0" transform="translate(0 -0.04)"/>
          <path class="cls-3" d="M49,4.49,47.19,2.64a8.91,8.91,0,0,0-12.58,0l-12.3,12.3a8.91,8.91,0,0,0,0,12.58,1.44,1.44,0,0,0,2-2,6,6,0,0,1,0-8.49l12.3-12.3a6,6,0,0,1,8.49,0L47,6.54A6,6,0,0,1,47,15L34.7,27.33a1.45,1.45,0,0,0,1,2.47,1.41,1.41,0,0,0,1-.43L49,17.07A8.9,8.9,0,0,0,49,4.49Zm0,0" transform="translate(0 -0.04)"/>
        </g>
        <g class="cls-4">
          <path class="cls-5" d="M29,22.39a1.44,1.44,0,0,0,0,2,6,6,0,0,1,0,8.49l-12.3,12.3a6,6,0,0,1-8.49,0L6.39,43.38a6,6,0,0,1,0-8.49l12.3-12.3a1.44,1.44,0,0,0-2-2L4.35,32.84a8.88,8.88,0,0,0,0,12.58L6.2,47.27a8.91,8.91,0,0,0,12.58,0L31.08,35a8.91,8.91,0,0,0,0-12.58,1.44,1.44,0,0,0-2,0Zm0,0" transform="translate(0 -0.04)"/>
          <path class="cls-5" d="M50.78,6.23,48.93,4.38a8.91,8.91,0,0,0-12.58,0l-12.3,12.3a8.91,8.91,0,0,0,0,12.58,1.44,1.44,0,0,0,2-2,6,6,0,0,1,0-8.49l12.3-12.3a6,6,0,0,1,8.49,0l1.85,1.85a6,6,0,0,1,0,8.49l-12.3,12.3a1.45,1.45,0,0,0,1,2.47,1.41,1.41,0,0,0,1-.43l12.3-12.3a8.9,8.9,0,0,0,0-12.58Zm0,0" transform="translate(0 -0.04)"/>
        </g>
      </g>
    </g>
  </g>
</svg>
