<svg xmlns="http://www.w3.org/2000/svg" viewBox="0 0 114.82 72.88">
  <defs>
    <style>
      .cls-1 {
        fill: #005b75;
      }

      .cls-2 {
        fill: #0088ac;
      }

      .cls-3 {
        fill: #00bdde;
      }

      .cls-4 {
        fill: #004d75;
      }

      .cls-5 {
        fill: #e3e4e5;
      }

      .cls-6 {
        fill: none;
        stroke: #fff;
        stroke-linecap: round;
        stroke-linejoin: round;
        stroke-width: 0.76px;
      }
    </style>
  </defs>
  <title>traxion-team_2</title>
  <g id="Layer_2" data-name="Layer 2">
    <g id="Capa_1" data-name="Capa 1">
      <g>
        <g>
          <g>
            <path class="cls-1" d="M64.21,8.79A8.79,8.79,0,1,1,55.43,0,8.8,8.8,0,0,1,64.21,8.79Z"/>
            <path class="cls-1" d="M69.25,24.25V45.57H64.2V68.16H56.67V50.6H54.16V68.16h-7.5V45.57h-5V24.25c0-2.89,6-4.06,8.39-5.69a9.6,9.6,0,0,0,10.84,0C63.22,20.19,69.25,21.36,69.25,24.25Z"/>
          </g>
          <g>
            <path class="cls-1" d="M22.58,8.79A8.79,8.79,0,1,1,13.79,0,8.8,8.8,0,0,1,22.58,8.79Z"/>
            <path class="cls-1" d="M27.62,24.25V45.57H22.57V68.16H15V50.6H12.52V68.16H5V45.57H0V24.25c0-2.89,6-4.06,8.39-5.69a9.6,9.6,0,0,0,10.84,0C21.59,20.19,27.62,21.36,27.62,24.25Z"/>
          </g>
          <g>
            <path class="cls-2" d="M31.38,11.51A8.79,8.79,0,1,1,22.6,2.72,8.8,8.8,0,0,1,31.38,11.51Z"/>
            <path class="cls-2" d="M36.42,27V48.3H31.37V70.88H23.84V53.32H21.33V70.88h-7.5V48.3h-5V27c0-2.89,6-4.06,8.39-5.69a9.6,9.6,0,0,0,10.84,0C30.39,22.92,36.42,24.08,36.42,27Z"/>
          </g>
          <g>
            <path class="cls-2" d="M54,11.51a8.79,8.79,0,1,1-8.79-8.79A8.8,8.8,0,0,1,54,11.51Z"/>
            <path class="cls-2" d="M59,27V48.3H53.95V70.88H46.42V53.32H43.91V70.88H36.4V48.3h-5V27c0-2.89,6-4.06,8.39-5.69a9.6,9.6,0,0,0,10.84,0C53,22.92,59,24.08,59,27Z"/>
          </g>
          <g>
            <path class="cls-3" d="M45.19,13.51A8.79,8.79,0,1,1,36.4,4.72,8.8,8.8,0,0,1,45.19,13.51Z"/>
            <path class="cls-3" d="M50.23,29V50.3H45.18V72.88H37.64V55.32H35.13V72.88h-7.5V50.3h-5V29c0-2.89,6-4.06,8.39-5.69a9.6,9.6,0,0,0,10.84,0C44.2,24.92,50.23,26.08,50.23,29Z"/>
          </g>
        </g>
        <g>
          <circle class="cls-1" cx="108.55" cy="36.44" r="6.28"/>
          <path class="cls-2" d="M114.82,61.52a6.28,6.28,0,1,1-6.28-6.28A6.28,6.28,0,0,1,114.82,61.52Z"/>
          <path class="cls-4" d="M114.82,11.36a6.28,6.28,0,1,1-6.28-6.28A6.29,6.29,0,0,1,114.82,11.36Z"/>
          <path class="cls-5" d="M83.47,35.18H74.68a1.26,1.26,0,0,0-1.26,1.26h0a1.26,1.26,0,0,0,1.26,1.26h8.79V61.53a1.26,1.26,0,0,0,1.26,1.26H97.27a1.26,1.26,0,0,0,1.26-1.26h0a1.26,1.26,0,0,0-1.26-1.26H86V37.7H97.27a1.26,1.26,0,0,0,1.26-1.26h0a1.26,1.26,0,0,0-1.26-1.26H86V12.6H97.27a1.26,1.26,0,0,0,1.26-1.26h0a1.26,1.26,0,0,0-1.26-1.26H84.88a1.41,1.41,0,0,0-1.41,1.41Z"/>
        </g>
      </g>
      <g>
        <line class="cls-6" x1="105.47" y1="11.55" x2="107.52" y2="13.6"/>
        <line class="cls-6" x1="107.52" y1="13.6" x2="111.62" y2="9.49"/>
      </g>
      <g>
        <line class="cls-6" x1="105.47" y1="36.63" x2="107.52" y2="38.67"/>
        <line class="cls-6" x1="107.52" y1="38.67" x2="111.62" y2="34.57"/>
      </g>
      <g>
        <line class="cls-6" x1="105.47" y1="61.7" x2="107.52" y2="63.75"/>
        <line class="cls-6" x1="107.52" y1="63.75" x2="111.62" y2="59.64"/>
      </g>
    </g>
  </g>
</svg>
